<svg width="640" height="481" viewBox="0 0 640 481" fill="none" xmlns="http://www.w3.org/2000/svg">
<g clip-path="url(#clip0_62_545)">
<path d="M256 0.5H640V480.5H256V0.5Z" fill="#FF0000"/>
<path d="M0 0.5H256V480.5H0V0.5Z" fill="#006600"/>
<path fill-rule="evenodd" clip-rule="evenodd" d="M339.5 306.7C307.2 305.7 159.5 213.5 158.5 198.7L166.6 185.2C181.3 206.5 332.3 296.2 347.2 293L339.5 306.7Z" fill="#FFFF00" stroke="black" stroke-width="0.6" stroke-linecap="round" stroke-linejoin="round"/>
<path fill-rule="evenodd" clip-rule="evenodd" d="M164.9 183.3C162 191.1 203.5 216.7 253.3 247.1C303.2 277.4 346.2 296.1 349.3 293.5L350.8 290.7C350.2 291.7 348.8 292 346.5 291.3C333 287.4 297.9 271.3 254.4 244.9C210.8 218.5 173 194.2 167.1 183.9C166.64 182.934 166.434 181.867 166.5 180.8H166.3L165.1 183L164.9 183.3ZM340.2 307.1C339.7 308.1 338.6 308.1 336.7 307.9C324.7 306.6 288.1 288.8 244.8 262.9C194.4 232.7 152.8 205.3 157.4 198.1L158.6 195.9L158.8 196C154.8 208.2 240.9 257.4 246 260.6C295.8 291.4 337.8 309.5 341.5 304.8L340.2 307.1Z" fill="#FFFF00" stroke="black" stroke-width="0.6" stroke-linecap="round" stroke-linejoin="round"/>
<path fill-rule="evenodd" clip-rule="evenodd" d="M256.2 207.7C288.4 207.4 328.2 203.3 351.2 194.1L346.2 186.1C332.7 193.6 292.7 198.6 255.9 199.3C212.5 198.9 181.8 194.8 166.4 184.5L161.8 193.1C190 205.1 219 207.6 256.2 207.7Z" fill="#FFFF00" stroke="black" stroke-width="0.6" stroke-linecap="round" stroke-linejoin="round"/>
<path fill-rule="evenodd" clip-rule="evenodd" d="M352.5 194.3C351.7 195.6 336.7 200.7 314.7 204.5C295.306 207.439 275.715 208.876 256.1 208.8C237.307 208.87 218.531 207.668 199.9 205.2C176.8 201.6 164.9 196.6 160.4 194.8L161.5 192.6C174.2 197.6 186.2 200.6 200.2 202.8C218.695 205.297 237.338 206.533 256 206.5C275.513 206.52 295.001 205.083 314.3 202.2C336.8 198.5 349.1 193.8 350.9 191.7L352.5 194.4V194.3ZM348.1 186.2C345.7 188.2 333.5 192.5 312.1 195.9C293.62 198.574 274.972 199.91 256.3 199.9C234.3 199.9 216.2 198.3 202.5 196.3C180.7 193.5 169.1 188.3 164.9 186.9L166.2 184.7C169.5 186.4 180.6 190.9 202.7 194C220.466 196.38 238.376 197.516 256.3 197.4C274.839 197.406 293.354 196.069 311.7 193.4C333.2 190.4 344.8 185 346.6 183.6L348.1 186.2ZM150.3 246.5C170.1 257.2 214.2 262.5 255.9 262.9C293.9 263 343.3 257.1 361.8 247.3L361.3 236.6C355.5 245.6 302.5 254.3 255.5 254C208.5 253.6 164.8 246.4 150.2 237V246.5" fill="#FFFF00"/>
<path d="M150.3 246.5C170.1 257.2 214.2 262.5 255.9 262.9C293.9 263 343.3 257.1 361.8 247.3L361.3 236.6C355.5 245.6 302.5 254.3 255.5 254C208.5 253.6 164.8 246.4 150.2 237V246.5M352.5 194.3C351.7 195.6 336.7 200.7 314.7 204.5C295.306 207.439 275.715 208.876 256.1 208.8C237.307 208.87 218.531 207.668 199.9 205.2C176.8 201.6 164.9 196.6 160.4 194.8L161.5 192.6C174.2 197.6 186.2 200.6 200.2 202.8C218.695 205.297 237.338 206.533 256 206.5C275.513 206.52 295.001 205.083 314.3 202.2C336.8 198.5 349.1 193.8 350.9 191.7L352.5 194.4V194.3ZM348.1 186.2C345.7 188.2 333.5 192.5 312.1 195.9C293.62 198.574 274.972 199.91 256.3 199.9C234.3 199.9 216.2 198.3 202.5 196.3C180.7 193.5 169.1 188.3 164.9 186.9L166.2 184.7C169.5 186.4 180.6 190.9 202.7 194C220.466 196.38 238.376 197.516 256.3 197.4C274.839 197.406 293.354 196.069 311.7 193.4C333.2 190.4 344.8 185 346.6 183.6L348.1 186.2Z" stroke="black" stroke-width="0.6" stroke-linecap="round" stroke-linejoin="round"/>
<path fill-rule="evenodd" clip-rule="evenodd" d="M362.8 245V247.5C360 250.9 342.6 255.9 320.8 259.5C299.142 262.613 277.28 264.084 255.4 263.9C234.653 264.077 213.924 262.639 193.4 259.6C178.086 257.83 163.121 253.786 149 247.6V244.7C158.7 251.1 184.9 255.9 193.7 257.3C209.5 259.7 229.8 261.5 255.4 261.5C282.3 261.5 303.8 259.6 320.4 257.1C336.1 254.8 358.4 248.9 362.8 245ZM362.8 236V238.5C360 241.8 342.6 246.8 320.8 250.4C299.145 253.547 277.282 255.051 255.4 254.9C234.655 255.022 213.93 253.585 193.4 250.6C178.086 248.83 163.121 244.786 149 238.6V235.6C158.7 242.1 185 246.8 193.7 248.2C214.128 251.192 234.754 252.63 255.4 252.5C282.3 252.5 303.9 250.5 320.4 248C336.1 245.8 358.4 239.9 362.8 236ZM255.8 304.8C210.2 304.6 171.1 292.4 162.8 290.4L168.8 299.8C196.849 309.734 226.448 314.577 256.2 314.1C290.9 313.1 321.2 310.4 342.5 300L348.7 290.2C334.2 297.1 284.7 304.8 255.7 304.8" fill="#FFFF00"/>
<path d="M255.8 304.8C210.2 304.6 171.1 292.4 162.8 290.4L168.8 299.8C196.849 309.734 226.448 314.577 256.2 314.1C290.9 313.1 321.2 310.4 342.5 300L348.7 290.2C334.2 297.1 284.7 304.8 255.7 304.8M362.8 245V247.5C360 250.9 342.6 255.9 320.8 259.5C299.142 262.613 277.28 264.084 255.4 263.9C234.653 264.077 213.924 262.639 193.4 259.6C178.086 257.83 163.121 253.786 149 247.6V244.7C158.7 251.1 184.9 255.9 193.7 257.3C209.5 259.7 229.8 261.5 255.4 261.5C282.3 261.5 303.8 259.6 320.4 257.1C336.1 254.8 358.4 248.9 362.8 245ZM362.8 236V238.5C360 241.8 342.6 246.8 320.8 250.4C299.145 253.547 277.282 255.051 255.4 254.9C234.655 255.022 213.93 253.585 193.4 250.6C178.086 248.83 163.121 244.786 149 238.6V235.6C158.7 242.1 185 246.8 193.7 248.2C214.128 251.192 234.754 252.63 255.4 252.5C282.3 252.5 303.9 250.5 320.4 248C336.1 245.8 358.4 239.9 362.8 236Z" stroke="black" stroke-width="0.6" stroke-linecap="round" stroke-linejoin="round"/>
<path fill-rule="evenodd" clip-rule="evenodd" d="M344.9 297.8C343.989 299.149 343.056 300.483 342.1 301.8C332.1 305.4 316.1 309.2 309.5 310.2C291.79 313.5 273.815 315.174 255.8 315.2C215.4 314.6 182.3 306.7 166.8 299.9L165.5 297.8L165.7 297.4L167.8 298.3C196.26 307.718 226.022 312.611 256 312.8C274.8 312.8 293.5 310.7 308.6 308C331.8 303.3 341.2 299.8 344.1 298.2L344.8 297.8H344.9ZM350.2 289C349.542 290.171 348.875 291.338 348.2 292.5C342.8 294.5 328.2 298.7 306.9 301.7C292.9 303.6 284.2 305.5 256.3 306C224.406 305.68 192.708 300.969 162.1 292L161 289.5C192.098 298.095 224.143 302.797 256.4 303.5C281.9 303 292.8 301.1 306.7 299.2C331.5 295.4 344 291.2 347.7 290.1C347.702 290.033 347.702 289.967 347.7 289.9L350.3 288.9L350.2 289Z" fill="#FFFF00" stroke="black" stroke-width="0.6" stroke-linecap="round" stroke-linejoin="round"/>
<path fill-rule="evenodd" clip-rule="evenodd" d="M350.8 238.1C350.9 268.1 335.5 295.1 323.2 306.9C305.033 324.618 280.773 334.708 255.4 335.1C225.1 335.6 196.6 315.9 188.9 307.2C171.674 288.933 161.87 264.904 161.4 239.8C163.2 207 176.1 184.2 194.7 168.5C212.768 153.626 235.498 145.589 258.9 145.8C272.561 146.462 285.933 149.971 298.16 156.102C310.386 162.232 321.197 170.849 329.9 181.4C342.4 196.6 347.9 213.1 350.8 238.1ZM255.6 135.5C283.575 135.499 310.416 146.557 330.272 166.263C350.128 185.969 361.389 212.726 361.6 240.7C361.6 254.581 358.866 268.326 353.554 281.15C348.242 293.974 340.456 305.626 330.641 315.441C320.826 325.256 309.174 333.042 296.35 338.354C283.526 343.666 269.781 346.4 255.9 346.4C242.019 346.4 228.274 343.666 215.45 338.354C202.626 333.042 190.974 325.256 181.159 315.441C171.344 305.626 163.558 293.974 158.246 281.15C152.934 268.326 150.2 254.581 150.2 240.7C150.1 182.7 197.5 135.5 255.6 135.5Z" fill="#FFFF00" stroke="black" stroke-width="0.6" stroke-linecap="round" stroke-linejoin="round"/>
<path fill-rule="evenodd" clip-rule="evenodd" d="M255.9 135C314.1 135 361.5 182.4 361.5 240.6C361.5 298.8 314.1 346.2 256 346.2C197.9 346.2 150.4 298.8 150.4 240.6C150.4 182.4 197.8 135 256 135H255.9ZM152.6 240.5C152.6 297.3 199.3 343.8 255.9 343.8C312.5 343.8 359.2 297.3 359.2 240.5C359.2 183.7 312.5 137.2 255.9 137.2C199.3 137.2 152.6 183.7 152.6 240.5Z" fill="#FFFF00" stroke="black" stroke-width="0.6" stroke-linecap="round" stroke-linejoin="round"/>
<path fill-rule="evenodd" clip-rule="evenodd" d="M256 143.8C281.622 143.879 306.172 154.093 324.29 172.21C342.407 190.328 352.621 214.878 352.7 240.5C352.621 266.131 342.411 290.692 324.296 308.825C306.181 326.959 281.631 337.195 256 337.3C203 337.3 159.3 293.7 159.3 240.5C159.405 214.886 169.627 190.351 187.739 172.239C205.851 154.127 230.386 143.905 256 143.8ZM161.6 240.5C161.6 292.5 204.2 334.9 256 334.9C307.8 334.9 350.4 292.4 350.4 240.5C350.4 188.5 307.8 146.1 256 146.1C230.996 146.205 207.046 156.185 189.365 173.865C171.685 191.546 161.705 215.496 161.6 240.5Z" fill="#FFFF00" stroke="black" stroke-width="0.6" stroke-linecap="round" stroke-linejoin="round"/>
<path fill-rule="evenodd" clip-rule="evenodd" d="M260.3 134.5H251.2V346.8H260.2L260.3 134.5Z" fill="#FFFF00" stroke="black" stroke-width="0.6" stroke-linecap="round" stroke-linejoin="round"/>
<path fill-rule="evenodd" clip-rule="evenodd" d="M259.3 133.3H261.6V348H259.4V133.3H259.3ZM250.3 133.3H252.7V348H250.4V133.3H250.3Z" fill="#FFFF00" stroke="black" stroke-width="0.6" stroke-linecap="round" stroke-linejoin="round"/>
<path fill-rule="evenodd" clip-rule="evenodd" d="M361.6 244.7V236.9L355.2 230.9L318.9 221.3L266.7 216L203.7 219.2L158.9 229.8L149.9 236.5V244.4L172.8 234.1L227.2 225.6H279.5L317.9 229.8L344.5 236.2L361.6 244.7Z" fill="#FFFF00" stroke="black" stroke-width="0.6" stroke-linecap="round" stroke-linejoin="round"/>
<path fill-rule="evenodd" clip-rule="evenodd" d="M256 224.3C280.9 224.3 305 226.6 324.3 230.3C344.1 234.3 358 239.3 362.8 244.8V247.6C357 240.6 338.3 235.6 323.8 232.6C304.8 229 280.8 226.6 255.9 226.6C229.8 226.6 205.4 229.2 186.6 232.8C171.6 235.8 151.5 241.8 149 247.6V244.7C150.3 240.7 165.3 234.7 186.3 230.4C205.2 226.7 229.6 224.3 255.9 224.3H256ZM256 215.2C278.9 215.154 301.758 217.162 324.3 221.2C344.1 225.2 358 230.2 362.8 235.8V238.5C357 231.6 338.3 226.5 323.8 223.6C304.8 219.9 280.8 217.6 255.9 217.6C232.691 217.527 209.526 219.602 186.7 223.8C172.2 226.5 151.3 232.7 149 238.5V235.7C150.4 231.7 165.6 225.4 186.3 221.4C205.3 217.7 229.6 215.2 256 215.2ZM255.4 169C294.7 168.8 329 174.5 344.7 182.5L350.4 192.5C336.8 185.1 299.8 177.5 255.5 178.5C219.4 178.8 180.8 182.5 161.5 192.9L168.3 181.5C184.2 173.2 221.6 169 255.4 169Z" fill="#FFFF00" stroke="black" stroke-width="0.6" stroke-linecap="round" stroke-linejoin="round"/>
<path fill-rule="evenodd" clip-rule="evenodd" d="M256 177.2C276.519 176.854 297.03 178.292 317.3 181.5C333.3 184.5 348.6 188.9 350.8 191.3L352.5 194.3C347.2 190.9 333.9 187 316.9 183.8C299.9 180.6 278.2 179.5 255.9 179.6C230.6 179.5 210.9 180.8 194.1 183.8C182.519 185.423 171.275 188.901 160.8 194.1L162.5 191C168.5 188 177.8 184.3 193.6 181.4C211.1 178.2 231 177.3 256 177.2ZM256 168.2C277.4 168 298.6 169.2 315.1 172.2C325.79 173.787 336.136 177.168 345.7 182.2L348.2 186.2C344 181.5 328.2 177 314.1 174.6C297.7 171.7 277.4 170.6 256 170.4C236.079 170.222 216.178 171.694 196.5 174.8C186.211 176.234 176.218 179.306 166.9 183.9L169.1 180.6C174.9 177.6 184.3 174.8 196.1 172.5C215.908 169.353 235.945 167.881 256 168.1V168.2ZM308.4 284.5C291.067 281.499 273.487 280.16 255.9 280.5C190.4 281.3 169.3 294 166.7 297.8L161.7 289.8C178.5 277.8 214.1 271 256.3 271.6C278.2 272 297.1 273.5 312.9 276.6L308.4 284.6" fill="#FFFF00"/>
<path d="M308.4 284.5C291.067 281.499 273.487 280.16 255.9 280.5C190.4 281.3 169.3 294 166.7 297.8L161.7 289.8C178.5 277.8 214.1 271 256.3 271.6C278.2 272 297.1 273.5 312.9 276.6L308.4 284.6M256 177.2C276.519 176.854 297.03 178.292 317.3 181.5C333.3 184.5 348.6 188.9 350.8 191.3L352.5 194.3C347.2 190.9 333.9 187 316.9 183.8C299.9 180.6 278.2 179.5 255.9 179.6C230.6 179.5 210.9 180.8 194.1 183.8C182.519 185.423 171.275 188.901 160.8 194.1L162.5 191C168.5 188 177.8 184.3 193.6 181.4C211.1 178.2 231 177.3 256 177.2ZM256 168.2C277.4 168 298.6 169.2 315.1 172.2C325.79 173.787 336.136 177.168 345.7 182.2L348.2 186.2C344 181.5 328.2 177 314.1 174.6C297.7 171.7 277.4 170.6 256 170.4C236.079 170.222 216.178 171.694 196.5 174.8C186.211 176.234 176.218 179.306 166.9 183.9L169.1 180.6C174.9 177.6 184.3 174.8 196.1 172.5C215.908 169.353 235.945 167.881 256 168.1V168.2Z" stroke="black" stroke-width="0.6" stroke-linecap="round" stroke-linejoin="round"/>
<path fill-rule="evenodd" clip-rule="evenodd" d="M255.6 279.4C273.8 279.7 291.6 280.4 308.9 283.6L307.7 285.8C291.7 282.8 274.5 281.8 255.7 281.8C231.4 281.6 207 283.9 185.7 290C179 291.9 167.9 296.2 166.7 299.8L165.5 297.8C165.9 295.6 172.5 291.2 185.1 287.8C209.5 280.8 232.3 279.5 255.6 279.4ZM256.4 270.2C275.61 270.18 294.784 271.854 313.7 275.2L312.4 277.5C293.929 274.112 275.179 272.471 256.4 272.6C232.2 272.6 206.5 274.4 183.1 281.2C175.6 283.4 162.5 288.2 162.1 291.9L160.9 289.7C161.1 286.3 172.4 281.8 182.6 278.9C206.1 272 231.9 270.3 256.4 270.2Z" fill="#FFFF00" stroke="black" stroke-width="0.6" stroke-linecap="round" stroke-linejoin="round"/>
<path fill-rule="evenodd" clip-rule="evenodd" d="M349.4 291L341.6 303.3L318.9 283.2L260.3 243.7L194.1 207.4L159.8 195.7L167.1 182.1L169.6 180.8L190.9 186.1L261.3 222.4L301.9 248L336 272.5L349.9 288.5L349.4 291Z" fill="#FFFF00" stroke="black" stroke-width="0.6" stroke-linecap="round" stroke-linejoin="round"/>
<path fill-rule="evenodd" clip-rule="evenodd" d="M158.6 196C164.6 192 208.8 211.6 255.2 239.6C301.3 267.6 345.5 299.2 341.5 305.1L340.2 307.2L339.6 307.7C339.7 307.6 340.4 306.7 339.6 304.6C337.6 298.1 306.2 273.1 254.3 241.7C203.6 211.6 161.4 193.4 157.3 198.6L158.6 196ZM351 290.9C354.8 283.3 313.8 252.4 262.9 222.3C210.9 192.8 173.3 175.4 166.4 180.6L165 183.5C165 183.6 165 183.3 165.4 183C166.6 182 168.7 182 169.6 182C181.4 182.2 215.1 197.7 262.4 224.8C283.2 236.8 350 279.8 349.7 291.8C349.7 292.8 349.8 293 349.4 293.6L351.1 291L351 290.9Z" fill="#FFFF00" stroke="black" stroke-width="0.6" stroke-linecap="round" stroke-linejoin="round"/>
<path d="M192.641 252.267C192.656 260.547 194.314 268.742 197.519 276.377C200.723 284.012 205.409 290.936 211.307 296.747C217.133 302.663 224.072 307.368 231.725 310.59C239.377 313.812 247.591 315.488 255.894 315.521C272.698 315.52 288.813 308.843 300.694 296.961C306.571 291.117 311.236 284.17 314.422 276.519C317.607 268.867 319.249 260.662 319.254 252.374V167.894L192.641 167.68V252.267Z" fill="white" stroke="black" stroke-width="0.746669"/>
<path d="M194.987 252.374C195.01 260.317 196.605 268.176 199.681 275.499C202.756 282.823 207.252 289.464 212.907 295.041C224.264 306.457 239.685 312.902 255.787 312.961C271.862 312.97 287.283 306.602 298.668 295.254C304.304 289.669 308.78 283.023 311.837 275.7C314.894 268.378 316.472 260.523 316.481 252.587V170.454H195.201V252.374M292.268 195.094V247.254L292.161 252.694C292.197 257.459 291.271 262.183 289.438 266.582C287.605 270.981 284.903 274.964 281.494 278.294C274.711 285.101 265.504 288.937 255.894 288.961C245.867 288.961 237.014 284.694 230.401 278.081C223.594 271.298 219.758 262.09 219.734 252.481V194.881L292.268 195.094Z" fill="#FF0000"/>
<path d="M194.987 252.374C195.01 260.317 196.605 268.176 199.681 275.499C202.756 282.823 207.252 289.464 212.907 295.041C224.264 306.457 239.685 312.902 255.787 312.961C271.862 312.97 287.283 306.602 298.668 295.254C304.304 289.669 308.78 283.023 311.837 275.7C314.894 268.378 316.472 260.523 316.481 252.587V170.454H195.201V252.374M292.268 195.094V247.254L292.161 252.694C292.197 257.459 291.271 262.183 289.438 266.582C287.605 270.981 284.903 274.964 281.494 278.294C274.711 285.101 265.504 288.937 255.894 288.961C245.867 288.961 237.014 284.694 230.401 278.081C223.594 271.298 219.758 262.09 219.734 252.481V194.881L292.268 195.094Z" stroke="black" stroke-width="0.533335"/>
<path d="M202.881 191.894C202.987 186.027 207.147 184.641 207.147 184.641C207.254 184.641 211.734 186.134 211.734 192.001H202.881" fill="#FFFF00"/>
<path d="M199.254 184.747L198.507 191.467H202.987C202.987 185.921 207.254 185.067 207.254 185.067C207.361 185.067 211.521 186.241 211.627 191.467H216.107L215.254 184.641H199.254V184.747ZM198.187 191.574H216.321C216.641 191.574 216.961 191.894 216.961 192.321C216.961 192.854 216.641 193.174 216.321 193.174H198.187C197.867 193.174 197.547 192.854 197.547 192.321C197.547 191.894 197.867 191.574 198.294 191.574H198.187Z" fill="#FFFF00" stroke="black" stroke-width="0.533335"/>
<path d="M204.801 191.467C204.801 187.947 207.254 186.987 207.254 186.987C207.254 186.987 209.707 188.054 209.707 191.467H204.801ZM198.614 181.867H216.001C216.321 181.867 216.641 182.294 216.641 182.72C216.641 183.04 216.321 183.36 216.001 183.36H198.614C198.294 183.36 197.974 183.04 197.974 182.614C197.974 182.294 198.294 181.974 198.614 181.974V181.867ZM199.041 183.467H215.467C215.787 183.467 216.107 183.787 216.107 184.214C216.107 184.64 215.787 184.96 215.467 184.96H198.934C198.507 184.96 198.294 184.64 198.294 184.214C198.294 183.787 198.507 183.467 198.934 183.467H199.041ZM204.374 172.16H205.654V173.014H206.614V172.16H208.001V173.12H208.961V172.054H210.241V174.187C210.241 174.614 210.027 174.827 209.707 174.827H205.014C204.694 174.827 204.374 174.614 204.374 174.294V172.16ZM209.281 175.04L209.601 181.867H205.014L205.334 174.934H209.281" fill="#FFFF00"/>
<path d="M209.281 175.04L209.601 181.867H205.014L205.334 174.934H209.281M204.801 191.467C204.801 187.947 207.254 186.987 207.254 186.987C207.254 186.987 209.707 188.054 209.707 191.467H204.801ZM198.614 181.867H216.001C216.321 181.867 216.641 182.294 216.641 182.72C216.641 183.04 216.321 183.36 216.001 183.36H198.614C198.294 183.36 197.974 183.04 197.974 182.614C197.974 182.294 198.294 181.974 198.614 181.974V181.867ZM199.041 183.467H215.467C215.787 183.467 216.107 183.787 216.107 184.214C216.107 184.64 215.787 184.96 215.467 184.96H198.934C198.507 184.96 198.294 184.64 198.294 184.214C198.294 183.787 198.507 183.467 198.934 183.467H199.041ZM204.374 172.16H205.654V173.014H206.614V172.16H208.001V173.12H208.961V172.054H210.241V174.187C210.241 174.614 210.027 174.827 209.707 174.827H205.014C204.694 174.827 204.374 174.614 204.374 174.294V172.16Z" stroke="black" stroke-width="0.533335"/>
<path d="M203.734 178.24V181.867H199.467V178.24H203.734Z" fill="#FFFF00" stroke="black" stroke-width="0.533335"/>
<path d="M215.041 178.24V181.867H210.774V178.24H215.041Z" fill="#FFFF00" stroke="black" stroke-width="0.533335"/>
<path d="M198.721 175.467H200.001V176.534H200.961V175.467H202.241V176.534H203.201V175.467H204.481V177.6C204.481 178.027 204.267 178.24 203.947 178.24H199.361C199.191 178.24 199.028 178.173 198.908 178.053C198.788 177.933 198.721 177.77 198.721 177.6V175.467Z" fill="#FFFF00" stroke="black" stroke-width="0.533335"/>
<path d="M210.027 175.467H211.307V176.534H212.267V175.467H213.547V176.534H214.507V175.467H215.787V177.6C215.787 178.027 215.574 178.24 215.254 178.24H210.667C210.498 178.24 210.335 178.173 210.215 178.053C210.095 177.933 210.027 177.77 210.027 177.6V175.467Z" fill="#FFFF00" stroke="black" stroke-width="0.533335"/>
<path d="M206.827 177.174C206.827 176.534 207.787 176.534 207.787 177.174V178.88H206.827V177.174Z" fill="black"/>
<path d="M201.174 179.52C201.174 178.88 202.027 178.88 202.027 179.52V180.8H201.174V179.52Z" fill="black"/>
<path d="M212.481 179.52C212.481 178.88 213.334 178.88 213.334 179.52V180.8H212.481V179.52Z" fill="black"/>
<path d="M202.881 241.281C202.987 235.414 207.147 234.027 207.147 234.027C207.254 234.027 211.734 235.521 211.734 241.387H202.881" fill="#FFFF00"/>
<path d="M199.254 234.134L198.507 240.854H202.987C202.987 235.307 207.254 234.454 207.254 234.454C207.361 234.454 211.521 235.627 211.627 240.854H216.107L215.254 234.027H199.254V234.134ZM198.187 240.961H216.321C216.641 240.961 216.961 241.281 216.961 241.707C216.961 242.241 216.641 242.561 216.321 242.561H198.187C197.867 242.561 197.547 242.241 197.547 241.707C197.547 241.281 197.867 240.961 198.294 240.961H198.187Z" fill="#FFFF00" stroke="black" stroke-width="0.533335"/>
<path d="M204.801 240.854C204.801 237.334 207.254 236.374 207.254 236.374C207.254 236.374 209.707 237.441 209.707 240.854H204.801ZM198.614 231.254H216.001C216.321 231.254 216.641 231.681 216.641 232.107C216.641 232.427 216.321 232.747 216.001 232.747H198.614C198.294 232.747 197.974 232.427 197.974 232.001C197.974 231.681 198.294 231.361 198.614 231.361V231.254ZM199.041 232.854H215.467C215.787 232.854 216.107 233.174 216.107 233.601C216.107 234.027 215.787 234.347 215.467 234.347H198.934C198.507 234.347 198.294 234.027 198.294 233.601C198.294 233.174 198.507 232.854 198.934 232.854H199.041ZM204.374 221.547H205.654V222.401H206.614V221.547H208.001V222.507H208.961V221.441H210.241V223.574C210.241 224.001 210.027 224.214 209.707 224.214H205.014C204.694 224.214 204.374 224.001 204.374 223.681V221.547ZM209.281 224.427L209.601 231.254H205.014L205.334 224.321H209.281" fill="#FFFF00"/>
<path d="M209.281 224.427L209.601 231.254H205.014L205.334 224.321H209.281M204.801 240.854C204.801 237.334 207.254 236.374 207.254 236.374C207.254 236.374 209.707 237.441 209.707 240.854H204.801ZM198.614 231.254H216.001C216.321 231.254 216.641 231.681 216.641 232.107C216.641 232.427 216.321 232.747 216.001 232.747H198.614C198.294 232.747 197.974 232.427 197.974 232.001C197.974 231.681 198.294 231.361 198.614 231.361V231.254ZM199.041 232.854H215.467C215.787 232.854 216.107 233.174 216.107 233.601C216.107 234.027 215.787 234.347 215.467 234.347H198.934C198.507 234.347 198.294 234.027 198.294 233.601C198.294 233.174 198.507 232.854 198.934 232.854H199.041ZM204.374 221.547H205.654V222.401H206.614V221.547H208.001V222.507H208.961V221.441H210.241V223.574C210.241 224.001 210.027 224.214 209.707 224.214H205.014C204.694 224.214 204.374 224.001 204.374 223.681V221.547Z" stroke="black" stroke-width="0.533335"/>
<path d="M203.734 227.627V231.254H199.467V227.627H203.734Z" fill="#FFFF00" stroke="black" stroke-width="0.533335"/>
<path d="M215.041 227.627V231.254H210.774V227.627H215.041Z" fill="#FFFF00" stroke="black" stroke-width="0.533335"/>
<path d="M198.721 224.854H200.001V225.921H200.961V224.854H202.241V225.921H203.201V224.854H204.481V226.987C204.481 227.414 204.267 227.627 203.947 227.627H199.361C199.191 227.627 199.028 227.56 198.908 227.44C198.788 227.32 198.721 227.157 198.721 226.987V224.854Z" fill="#FFFF00" stroke="black" stroke-width="0.533335"/>
<path d="M210.027 224.854H211.307V225.921H212.267V224.854H213.547V225.921H214.507V224.854H215.787V226.987C215.787 227.414 215.574 227.627 215.254 227.627H210.667C210.498 227.627 210.335 227.56 210.215 227.44C210.095 227.32 210.027 227.157 210.027 226.987V224.854Z" fill="#FFFF00" stroke="black" stroke-width="0.533335"/>
<path d="M206.827 226.561C206.827 225.921 207.787 225.921 207.787 226.561V228.267H206.827V226.561Z" fill="black"/>
<path d="M201.174 228.907C201.174 228.267 202.027 228.267 202.027 228.907V230.187H201.174V228.907Z" fill="black"/>
<path d="M212.481 228.907C212.481 228.267 213.334 228.267 213.334 228.907V230.187H212.481V228.907Z" fill="black"/>
<path d="M222.131 292.752C218.043 288.543 219.99 284.614 219.99 284.614C220.065 284.538 224.282 282.412 228.445 286.546L222.206 292.828" fill="#FFFF00"/>
<path d="M214.504 290.29L218.746 295.555L221.903 292.376C217.967 288.468 220.368 284.839 220.368 284.839C220.443 284.763 224.207 282.638 227.991 286.245L231.148 283.067L225.703 278.862L214.428 290.215L214.504 290.29ZM218.597 295.857L231.374 282.99C231.599 282.763 232.052 282.762 232.355 283.062C232.733 283.438 232.735 283.891 232.509 284.118L219.732 296.985C219.506 297.212 219.054 297.213 218.675 296.838C218.373 296.537 218.371 296.084 218.672 295.782L218.597 295.857Z" fill="#FFFF00" stroke="black" stroke-width="0.533335"/>
<path d="M223.181 291.089C220.683 288.609 221.731 286.192 221.731 286.192C221.731 286.192 224.216 285.203 226.638 287.608L223.181 291.089ZM212.01 288.715L224.261 276.378C224.486 276.151 225.015 276.224 225.317 276.525C225.544 276.75 225.546 277.203 225.32 277.43L213.069 289.767C212.844 289.994 212.391 289.996 212.088 289.695C211.861 289.47 211.86 289.017 212.085 288.79L212.01 288.715ZM213.446 289.54L225.02 277.884C225.246 277.657 225.698 277.655 226.001 277.956C226.304 278.256 226.305 278.709 226.08 278.936L214.43 290.667C214.129 290.97 213.752 290.896 213.449 290.595C213.146 290.295 213.07 289.918 213.37 289.615L213.446 289.54ZM209.181 277.788L210.083 276.88L210.688 277.481L211.365 276.8L210.759 276.199L211.736 275.215L212.417 275.891L213.094 275.21L212.337 274.458L213.239 273.55L214.753 275.053C215.055 275.354 215.056 275.656 214.831 275.883L211.524 279.213C211.298 279.44 210.922 279.517 210.694 279.291L209.181 277.788ZM214.682 276.336L219.751 280.919L216.519 284.174L211.825 279.061L214.606 276.261" fill="#FFFF00"/>
<path d="M214.682 276.336L219.751 280.919L216.519 284.174L211.825 279.061L214.606 276.261M223.181 291.089C220.683 288.609 221.731 286.192 221.731 286.192C221.731 286.192 224.216 285.203 226.638 287.608L223.181 291.089ZM212.01 288.715L224.261 276.378C224.486 276.151 225.015 276.224 225.317 276.525C225.544 276.75 225.546 277.203 225.32 277.43L213.069 289.767C212.844 289.994 212.391 289.996 212.088 289.695C211.861 289.47 211.86 289.017 212.085 288.79L212.01 288.715ZM213.446 289.54L225.02 277.884C225.246 277.657 225.698 277.655 226.001 277.956C226.304 278.256 226.305 278.709 226.08 278.936L214.43 290.667C214.129 290.97 213.752 290.896 213.449 290.595C213.146 290.295 213.07 289.918 213.37 289.615L213.446 289.54ZM209.181 277.788L210.083 276.88L210.688 277.481L211.365 276.8L210.759 276.199L211.736 275.215L212.417 275.891L213.094 275.21L212.337 274.458L213.239 273.55L214.753 275.053C215.055 275.354 215.056 275.656 214.831 275.883L211.524 279.213C211.298 279.44 210.922 279.517 210.694 279.291L209.181 277.788Z" stroke="black" stroke-width="0.533335"/>
<path d="M213.044 282.526L215.617 285.082L212.611 288.109L210.037 285.554L213.044 282.526Z" fill="#FFFF00" stroke="black" stroke-width="0.533335"/>
<path d="M221.011 274.503L223.584 277.059L220.578 280.086L218.005 277.531L221.011 274.503Z" fill="#FFFF00" stroke="black" stroke-width="0.533335"/>
<path d="M207.543 284.129L208.445 283.221L209.202 283.973L209.879 283.292L209.122 282.54L210.024 281.632L210.781 282.383L211.457 281.702L210.7 280.951L211.602 280.042L213.116 281.546C213.419 281.846 213.42 282.148 213.194 282.375L209.962 285.63C209.843 285.75 209.68 285.818 209.51 285.819C209.341 285.819 209.178 285.752 209.057 285.633L207.543 284.129Z" fill="#FFFF00" stroke="black" stroke-width="0.533335"/>
<path d="M215.511 276.107L216.412 275.198L217.169 275.95L217.846 275.269L217.089 274.517L217.991 273.609L218.748 274.36L219.424 273.679L218.667 272.928L219.569 272.019L221.083 273.523C221.386 273.823 221.387 274.125 221.161 274.352L217.929 277.607C217.81 277.727 217.647 277.795 217.478 277.796C217.308 277.796 217.145 277.729 217.024 277.61L215.511 276.107Z" fill="#FFFF00" stroke="black" stroke-width="0.533335"/>
<path d="M214.467 279.58C214.013 279.129 214.689 278.448 215.143 278.899L216.354 280.101L215.678 280.782L214.467 279.58Z" fill="black"/>
<path d="M212.148 285.245C211.694 284.794 212.295 284.188 212.75 284.639L213.658 285.541L213.057 286.147L212.148 285.245Z" fill="black"/>
<path d="M220.115 277.222C219.661 276.771 220.263 276.165 220.717 276.616L221.625 277.518L221.024 278.124L220.115 277.222Z" fill="black"/>
<path d="M251.627 191.894C251.734 186.027 255.894 184.641 255.894 184.641C256.001 184.641 260.481 186.134 260.481 192.001H251.627" fill="#FFFF00"/>
<path d="M248.001 184.747L247.254 191.467H251.734C251.734 185.921 256.001 185.067 256.001 185.067C256.107 185.067 260.268 186.241 260.374 191.467H264.854L264.001 184.641H248.001V184.747ZM246.934 191.574H265.068C265.388 191.574 265.708 191.894 265.708 192.321C265.708 192.854 265.388 193.174 265.068 193.174H246.934C246.614 193.174 246.294 192.854 246.294 192.321C246.294 191.894 246.614 191.574 247.041 191.574H246.934Z" fill="#FFFF00" stroke="black" stroke-width="0.533335"/>
<path d="M253.547 191.467C253.547 187.947 256.001 186.987 256.001 186.987C256.001 186.987 258.454 188.054 258.454 191.467H253.547ZM247.361 181.867H264.748C265.068 181.867 265.388 182.294 265.388 182.72C265.388 183.04 265.068 183.36 264.748 183.36H247.361C247.041 183.36 246.721 183.04 246.721 182.614C246.721 182.294 247.041 181.974 247.361 181.974V181.867ZM247.787 183.467H264.214C264.534 183.467 264.854 183.787 264.854 184.214C264.854 184.64 264.534 184.96 264.214 184.96H247.681C247.254 184.96 247.041 184.64 247.041 184.214C247.041 183.787 247.254 183.467 247.681 183.467H247.787ZM253.121 172.16H254.401V173.014H255.361V172.16H256.747V173.12H257.707V172.054H258.988V174.187C258.988 174.614 258.774 174.827 258.454 174.827H253.761C253.441 174.827 253.121 174.614 253.121 174.294V172.16ZM258.027 175.04L258.347 181.867H253.761L254.081 174.934H258.027" fill="#FFFF00"/>
<path d="M258.027 175.04L258.347 181.867H253.761L254.081 174.934H258.027M253.547 191.467C253.547 187.947 256.001 186.987 256.001 186.987C256.001 186.987 258.454 188.054 258.454 191.467H253.547ZM247.361 181.867H264.748C265.068 181.867 265.388 182.294 265.388 182.72C265.388 183.04 265.068 183.36 264.748 183.36H247.361C247.041 183.36 246.721 183.04 246.721 182.614C246.721 182.294 247.041 181.974 247.361 181.974V181.867ZM247.787 183.467H264.214C264.534 183.467 264.854 183.787 264.854 184.214C264.854 184.64 264.534 184.96 264.214 184.96H247.681C247.254 184.96 247.041 184.64 247.041 184.214C247.041 183.787 247.254 183.467 247.681 183.467H247.787ZM253.121 172.16H254.401V173.014H255.361V172.16H256.747V173.12H257.707V172.054H258.988V174.187C258.988 174.614 258.774 174.827 258.454 174.827H253.761C253.441 174.827 253.121 174.614 253.121 174.294V172.16Z" stroke="black" stroke-width="0.533335"/>
<path d="M252.481 178.24V181.867H248.214V178.24H252.481Z" fill="#FFFF00" stroke="black" stroke-width="0.533335"/>
<path d="M263.788 178.24V181.867H259.521V178.24H263.788Z" fill="#FFFF00" stroke="black" stroke-width="0.533335"/>
<path d="M247.467 175.467H248.747V176.534H249.707V175.467H250.987V176.534H251.947V175.467H253.227V177.6C253.227 178.027 253.014 178.24 252.694 178.24H248.107C247.938 178.24 247.775 178.173 247.655 178.053C247.535 177.933 247.467 177.77 247.467 177.6V175.467Z" fill="#FFFF00" stroke="black" stroke-width="0.533335"/>
<path d="M258.774 175.467H260.054V176.534H261.014V175.467H262.294V176.534H263.254V175.467H264.534V177.6C264.534 178.027 264.321 178.24 264.001 178.24H259.414C259.244 178.24 259.082 178.173 258.962 178.053C258.842 177.933 258.774 177.77 258.774 177.6V175.467Z" fill="#FFFF00" stroke="black" stroke-width="0.533335"/>
<path d="M255.574 177.174C255.574 176.534 256.534 176.534 256.534 177.174V178.88H255.574V177.174Z" fill="black"/>
<path d="M249.921 179.52C249.921 178.88 250.774 178.88 250.774 179.52V180.8H249.921V179.52Z" fill="black"/>
<path d="M261.228 179.52C261.228 178.88 262.081 178.88 262.081 179.52V180.8H261.228V179.52Z" fill="black"/>
<path d="M308.908 191.894C308.801 186.027 304.641 184.641 304.641 184.641C304.534 184.641 300.054 186.134 300.054 192.001H308.908" fill="#FFFF00"/>
<path d="M312.534 184.747L313.281 191.467H308.801C308.801 185.921 304.534 185.067 304.534 185.067C304.428 185.067 300.268 186.241 300.161 191.467H295.681L296.534 184.641H312.534V184.747ZM313.601 191.574H295.468C295.148 191.574 294.828 191.894 294.828 192.321C294.828 192.854 295.148 193.174 295.468 193.174H313.601C313.921 193.174 314.241 192.854 314.241 192.321C314.241 191.894 313.921 191.574 313.494 191.574H313.601Z" fill="#FFFF00" stroke="black" stroke-width="0.533335"/>
<path d="M306.988 191.467C306.988 187.947 304.534 186.987 304.534 186.987C304.534 186.987 302.081 188.054 302.081 191.467H306.988ZM313.174 181.867H295.788C295.468 181.867 295.148 182.294 295.148 182.72C295.148 183.04 295.468 183.36 295.788 183.36H313.174C313.494 183.36 313.814 183.04 313.814 182.614C313.814 182.294 313.494 181.974 313.174 181.974V181.867ZM312.748 183.467H296.321C296.001 183.467 295.681 183.787 295.681 184.214C295.681 184.64 296.001 184.96 296.321 184.96H312.854C313.281 184.96 313.494 184.64 313.494 184.214C313.494 183.787 313.281 183.467 312.854 183.467H312.748ZM307.414 172.16H306.134V173.014H305.174V172.16H303.788V173.12H302.828V172.054H301.548V174.187C301.548 174.614 301.761 174.827 302.081 174.827H306.774C307.094 174.827 307.414 174.614 307.414 174.294V172.16ZM302.508 175.04L302.188 181.867H306.774L306.454 174.934H302.508" fill="#FFFF00"/>
<path d="M302.508 175.04L302.188 181.867H306.774L306.454 174.934H302.508M306.988 191.467C306.988 187.947 304.534 186.987 304.534 186.987C304.534 186.987 302.081 188.054 302.081 191.467H306.988ZM313.174 181.867H295.788C295.468 181.867 295.148 182.294 295.148 182.72C295.148 183.04 295.468 183.36 295.788 183.36H313.174C313.494 183.36 313.814 183.04 313.814 182.614C313.814 182.294 313.494 181.974 313.174 181.974V181.867ZM312.748 183.467H296.321C296.001 183.467 295.681 183.787 295.681 184.214C295.681 184.64 296.001 184.96 296.321 184.96H312.854C313.281 184.96 313.494 184.64 313.494 184.214C313.494 183.787 313.281 183.467 312.854 183.467H312.748ZM307.414 172.16H306.134V173.014H305.174V172.16H303.788V173.12H302.828V172.054H301.548V174.187C301.548 174.614 301.761 174.827 302.081 174.827H306.774C307.094 174.827 307.414 174.614 307.414 174.294V172.16Z" stroke="black" stroke-width="0.533335"/>
<path d="M308.054 178.24V181.867H312.321V178.24H308.054Z" fill="#FFFF00" stroke="black" stroke-width="0.533335"/>
<path d="M296.748 178.24V181.867H301.014V178.24H296.748Z" fill="#FFFF00" stroke="black" stroke-width="0.533335"/>
<path d="M313.068 175.467H311.788V176.534H310.828V175.467H309.548V176.534H308.588V175.467H307.308V177.6C307.308 178.027 307.521 178.24 307.841 178.24H312.428C312.597 178.24 312.76 178.173 312.88 178.053C313 177.933 313.068 177.77 313.068 177.6V175.467Z" fill="#FFFF00" stroke="black" stroke-width="0.533335"/>
<path d="M301.761 175.467H300.481V176.534H299.521V175.467H298.241V176.534H297.281V175.467H296.001V177.6C296.001 178.027 296.214 178.24 296.534 178.24H301.121C301.291 178.24 301.453 178.173 301.573 178.053C301.693 177.933 301.761 177.77 301.761 177.6V175.467Z" fill="#FFFF00" stroke="black" stroke-width="0.533335"/>
<path d="M304.961 177.174C304.961 176.534 304.001 176.534 304.001 177.174V178.88H304.961V177.174Z" fill="black"/>
<path d="M310.614 179.52C310.614 178.88 309.761 178.88 309.761 179.52V180.8H310.614V179.52Z" fill="black"/>
<path d="M299.308 179.52C299.308 178.88 298.454 178.88 298.454 179.52V180.8H299.308V179.52Z" fill="black"/>
<path d="M308.908 241.281C308.801 235.414 304.641 234.027 304.641 234.027C304.534 234.027 300.054 235.521 300.054 241.387H308.908" fill="#FFFF00"/>
<path d="M312.534 234.134L313.281 240.854H308.801C308.801 235.307 304.534 234.454 304.534 234.454C304.428 234.454 300.268 235.627 300.161 240.854H295.681L296.534 234.027H312.534V234.134ZM313.601 240.961H295.468C295.148 240.961 294.828 241.281 294.828 241.707C294.828 242.241 295.148 242.561 295.468 242.561H313.601C313.921 242.561 314.241 242.241 314.241 241.707C314.241 241.281 313.921 240.961 313.494 240.961H313.601Z" fill="#FFFF00" stroke="black" stroke-width="0.533335"/>
<path d="M306.988 240.854C306.988 237.334 304.534 236.374 304.534 236.374C304.534 236.374 302.081 237.441 302.081 240.854H306.988ZM313.174 231.254H295.788C295.468 231.254 295.148 231.681 295.148 232.107C295.148 232.427 295.468 232.747 295.788 232.747H313.174C313.494 232.747 313.814 232.427 313.814 232.001C313.814 231.681 313.494 231.361 313.174 231.361V231.254ZM312.748 232.854H296.321C296.001 232.854 295.681 233.174 295.681 233.601C295.681 234.027 296.001 234.347 296.321 234.347H312.854C313.281 234.347 313.494 234.027 313.494 233.601C313.494 233.174 313.281 232.854 312.854 232.854H312.748ZM307.414 221.547H306.134V222.401H305.174V221.547H303.788V222.507H302.828V221.441H301.548V223.574C301.548 224.001 301.761 224.214 302.081 224.214H306.774C307.094 224.214 307.414 224.001 307.414 223.681V221.547ZM302.508 224.427L302.188 231.254H306.774L306.454 224.321H302.508" fill="#FFFF00"/>
<path d="M302.508 224.427L302.188 231.254H306.774L306.454 224.321H302.508M306.988 240.854C306.988 237.334 304.534 236.374 304.534 236.374C304.534 236.374 302.081 237.441 302.081 240.854H306.988ZM313.174 231.254H295.788C295.468 231.254 295.148 231.681 295.148 232.107C295.148 232.427 295.468 232.747 295.788 232.747H313.174C313.494 232.747 313.814 232.427 313.814 232.001C313.814 231.681 313.494 231.361 313.174 231.361V231.254ZM312.748 232.854H296.321C296.001 232.854 295.681 233.174 295.681 233.601C295.681 234.027 296.001 234.347 296.321 234.347H312.854C313.281 234.347 313.494 234.027 313.494 233.601C313.494 233.174 313.281 232.854 312.854 232.854H312.748ZM307.414 221.547H306.134V222.401H305.174V221.547H303.788V222.507H302.828V221.441H301.548V223.574C301.548 224.001 301.761 224.214 302.081 224.214H306.774C307.094 224.214 307.414 224.001 307.414 223.681V221.547Z" stroke="black" stroke-width="0.533335"/>
<path d="M308.054 227.627V231.254H312.321V227.627H308.054Z" fill="#FFFF00" stroke="black" stroke-width="0.533335"/>
<path d="M296.748 227.627V231.254H301.014V227.627H296.748Z" fill="#FFFF00" stroke="black" stroke-width="0.533335"/>
<path d="M313.068 224.854H311.788V225.921H310.828V224.854H309.548V225.921H308.588V224.854H307.308V226.987C307.308 227.414 307.521 227.627 307.841 227.627H312.428C312.597 227.627 312.76 227.56 312.88 227.44C313 227.32 313.068 227.157 313.068 226.987V224.854Z" fill="#FFFF00" stroke="black" stroke-width="0.533335"/>
<path d="M301.761 224.854H300.481V225.921H299.521V224.854H298.241V225.921H297.281V224.854H296.001V226.987C296.001 227.414 296.214 227.627 296.534 227.627H301.121C301.291 227.627 301.453 227.56 301.573 227.44C301.693 227.32 301.761 227.157 301.761 226.987V224.854Z" fill="#FFFF00" stroke="black" stroke-width="0.533335"/>
<path d="M304.961 226.561C304.961 225.921 304.001 225.921 304.001 226.561V228.267H304.961V226.561Z" fill="black"/>
<path d="M310.614 228.907C310.614 228.267 309.761 228.267 309.761 228.907V230.187H310.614V228.907Z" fill="black"/>
<path d="M299.308 228.907C299.308 228.267 298.454 228.267 298.454 228.907V230.187H299.308V228.907Z" fill="black"/>
<path d="M289.658 292.752C293.745 288.543 291.798 284.614 291.798 284.614C291.723 284.538 287.506 282.412 283.344 286.546L289.582 292.828" fill="#FFFF00"/>
<path d="M297.284 290.29L293.042 295.555L289.885 292.376C293.821 288.468 291.42 284.839 291.42 284.839C291.345 284.763 287.581 282.638 283.797 286.245L280.64 283.067L286.086 278.862L297.36 290.215L297.284 290.29ZM293.192 295.857L280.414 282.99C280.189 282.763 279.736 282.762 279.434 283.062C279.055 283.438 279.054 283.891 279.279 284.118L292.056 296.985C292.282 297.212 292.734 297.213 293.113 296.838C293.416 296.537 293.417 296.084 293.117 295.782L293.192 295.857Z" fill="#FFFF00" stroke="black" stroke-width="0.533335"/>
<path d="M288.607 291.089C291.105 288.609 290.058 286.192 290.058 286.192C290.058 286.192 287.572 285.203 285.15 287.608L288.607 291.089ZM299.779 288.715L287.527 276.378C287.302 276.151 286.774 276.224 286.471 276.525C286.244 276.75 286.242 277.203 286.468 277.43L298.719 289.767C298.945 289.994 299.397 289.996 299.7 289.695C299.927 289.47 299.929 289.017 299.703 288.79L299.779 288.715ZM298.343 289.54L286.768 277.884C286.542 277.657 286.09 277.655 285.787 277.956C285.484 278.256 285.483 278.709 285.708 278.936L297.358 290.667C297.659 290.97 298.036 290.896 298.339 290.595C298.642 290.295 298.719 289.918 298.418 289.615L298.343 289.54ZM302.608 277.788L301.706 276.88L301.1 277.481L300.424 276.8L301.029 276.199L300.052 275.215L299.371 275.891L298.694 275.21L299.451 274.458L298.549 273.55L297.036 275.053C296.733 275.354 296.732 275.656 296.957 275.883L300.264 279.213C300.49 279.44 300.867 279.517 301.094 279.291L302.608 277.788ZM297.107 276.336L292.037 280.919L295.269 284.174L299.963 279.061L297.182 276.261" fill="#FFFF00"/>
<path d="M297.107 276.336L292.037 280.919L295.269 284.174L299.963 279.061L297.182 276.261M288.607 291.089C291.105 288.609 290.058 286.192 290.058 286.192C290.058 286.192 287.572 285.203 285.15 287.608L288.607 291.089ZM299.779 288.715L287.527 276.378C287.302 276.151 286.774 276.224 286.471 276.525C286.244 276.75 286.242 277.203 286.468 277.43L298.719 289.767C298.945 289.994 299.397 289.996 299.7 289.695C299.927 289.47 299.929 289.017 299.703 288.79L299.779 288.715ZM298.343 289.54L286.768 277.884C286.542 277.657 286.09 277.655 285.787 277.956C285.484 278.256 285.483 278.709 285.708 278.936L297.358 290.667C297.659 290.97 298.036 290.896 298.339 290.595C298.642 290.295 298.719 289.918 298.418 289.615L298.343 289.54ZM302.608 277.788L301.706 276.88L301.1 277.481L300.424 276.8L301.029 276.199L300.052 275.215L299.371 275.891L298.694 275.21L299.451 274.458L298.549 273.55L297.036 275.053C296.733 275.354 296.732 275.656 296.957 275.883L300.264 279.213C300.49 279.44 300.867 279.517 301.094 279.291L302.608 277.788Z" stroke="black" stroke-width="0.533335"/>
<path d="M298.744 282.526L296.171 285.082L299.177 288.109L301.751 285.554L298.744 282.526Z" fill="#FFFF00" stroke="black" stroke-width="0.533335"/>
<path d="M290.777 274.503L288.204 277.059L291.21 280.086L293.784 277.531L290.777 274.503Z" fill="#FFFF00" stroke="black" stroke-width="0.533335"/>
<path d="M304.245 284.129L303.343 283.221L302.586 283.973L301.91 283.292L302.666 282.54L301.764 281.632L301.008 282.383L300.331 281.702L301.088 280.951L300.186 280.042L298.672 281.546C298.37 281.846 298.369 282.148 298.594 282.375L301.826 285.63C301.946 285.75 302.108 285.818 302.278 285.819C302.448 285.819 302.611 285.752 302.731 285.633L304.245 284.129Z" fill="#FFFF00" stroke="black" stroke-width="0.533335"/>
<path d="M296.278 276.107L295.376 275.198L294.619 275.95L293.943 275.269L294.699 274.517L293.797 273.609L293.041 274.361L292.364 273.679L293.121 272.928L292.219 272.019L290.705 273.523C290.403 273.823 290.402 274.125 290.627 274.352L293.859 277.607C293.979 277.727 294.141 277.795 294.311 277.796C294.481 277.796 294.644 277.729 294.764 277.61L296.278 276.107Z" fill="#FFFF00" stroke="black" stroke-width="0.533335"/>
<path d="M297.322 279.58C297.776 279.129 297.099 278.448 296.645 278.899L295.434 280.101L296.111 280.782L297.322 279.58Z" fill="black"/>
<path d="M299.64 285.245C300.094 284.794 299.493 284.188 299.039 284.639L298.13 285.541L298.732 286.147L299.64 285.245Z" fill="black"/>
<path d="M291.673 277.222C292.127 276.771 291.526 276.165 291.072 276.616L290.163 277.518L290.765 278.124L291.673 277.222Z" fill="black"/>
<path d="M248.107 243.094C248.088 245.345 248.927 247.519 250.454 249.174C251.166 249.971 252.037 250.61 253.011 251.05C253.984 251.491 255.039 251.724 256.107 251.734C258.347 251.734 260.374 250.667 261.761 249.174C263.288 247.519 264.127 245.345 264.107 243.094V231.574H248.107V243.094Z" fill="#003399"/>
<path d="M251.841 237.547C252.724 237.547 253.441 236.831 253.441 235.947C253.441 235.064 252.724 234.347 251.841 234.347C250.957 234.347 250.241 235.064 250.241 235.947C250.241 236.831 250.957 237.547 251.841 237.547Z" fill="white"/>
<path d="M260.694 237.547C261.578 237.547 262.294 236.831 262.294 235.947C262.294 235.064 261.578 234.347 260.694 234.347C259.81 234.347 259.094 235.064 259.094 235.947C259.094 236.831 259.81 237.547 260.694 237.547Z" fill="white"/>
<path d="M256.214 241.814C257.098 241.814 257.814 241.098 257.814 240.214C257.814 239.33 257.098 238.614 256.214 238.614C255.33 238.614 254.614 239.33 254.614 240.214C254.614 241.098 255.33 241.814 256.214 241.814Z" fill="white"/>
<path d="M251.841 246.294C252.724 246.294 253.441 245.578 253.441 244.694C253.441 243.81 252.724 243.094 251.841 243.094C250.957 243.094 250.241 243.81 250.241 244.694C250.241 245.578 250.957 246.294 251.841 246.294Z" fill="white"/>
<path d="M260.694 246.294C261.578 246.294 262.294 245.578 262.294 244.694C262.294 243.81 261.578 243.094 260.694 243.094C259.81 243.094 259.094 243.81 259.094 244.694C259.094 245.578 259.81 246.294 260.694 246.294Z" fill="white"/>
<path d="M248.107 215.361C248.088 217.612 248.927 219.786 250.454 221.441C251.166 222.237 252.037 222.876 253.011 223.317C253.984 223.758 255.039 223.991 256.107 224.001C258.347 224.001 260.374 222.934 261.761 221.441C263.288 219.786 264.127 217.612 264.107 215.361V203.841H248.107V215.361Z" fill="#003399"/>
<path d="M251.841 209.814C252.724 209.814 253.441 209.098 253.441 208.214C253.441 207.33 252.724 206.614 251.841 206.614C250.957 206.614 250.241 207.33 250.241 208.214C250.241 209.098 250.957 209.814 251.841 209.814Z" fill="white"/>
<path d="M260.694 209.814C261.578 209.814 262.294 209.098 262.294 208.214C262.294 207.33 261.578 206.614 260.694 206.614C259.81 206.614 259.094 207.33 259.094 208.214C259.094 209.098 259.81 209.814 260.694 209.814Z" fill="white"/>
<path d="M256.214 214.081C257.098 214.081 257.814 213.364 257.814 212.481C257.814 211.597 257.098 210.881 256.214 210.881C255.33 210.881 254.614 211.597 254.614 212.481C254.614 213.364 255.33 214.081 256.214 214.081Z" fill="white"/>
<path d="M251.841 218.561C252.724 218.561 253.441 217.844 253.441 216.961C253.441 216.077 252.724 215.361 251.841 215.361C250.957 215.361 250.241 216.077 250.241 216.961C250.241 217.844 250.957 218.561 251.841 218.561Z" fill="white"/>
<path d="M260.694 218.561C261.578 218.561 262.294 217.844 262.294 216.961C262.294 216.077 261.578 215.361 260.694 215.361C259.81 215.361 259.094 216.077 259.094 216.961C259.094 217.844 259.81 218.561 260.694 218.561Z" fill="white"/>
<path d="M225.921 243.094C225.901 245.345 226.741 247.519 228.267 249.174C228.98 249.971 229.851 250.61 230.824 251.05C231.797 251.491 232.852 251.724 233.921 251.734C236.161 251.734 238.187 250.667 239.574 249.174C241.101 247.519 241.94 245.345 241.921 243.094V231.574H225.921V243.094Z" fill="#003399"/>
<path d="M229.654 237.547C230.538 237.547 231.254 236.831 231.254 235.947C231.254 235.064 230.538 234.347 229.654 234.347C228.77 234.347 228.054 235.064 228.054 235.947C228.054 236.831 228.77 237.547 229.654 237.547Z" fill="white"/>
<path d="M238.507 237.547C239.391 237.547 240.107 236.831 240.107 235.947C240.107 235.064 239.391 234.347 238.507 234.347C237.624 234.347 236.907 235.064 236.907 235.947C236.907 236.831 237.624 237.547 238.507 237.547Z" fill="white"/>
<path d="M234.027 241.814C234.911 241.814 235.627 241.098 235.627 240.214C235.627 239.33 234.911 238.614 234.027 238.614C233.144 238.614 232.427 239.33 232.427 240.214C232.427 241.098 233.144 241.814 234.027 241.814Z" fill="white"/>
<path d="M229.654 246.294C230.538 246.294 231.254 245.578 231.254 244.694C231.254 243.81 230.538 243.094 229.654 243.094C228.77 243.094 228.054 243.81 228.054 244.694C228.054 245.578 228.77 246.294 229.654 246.294Z" fill="white"/>
<path d="M238.507 246.294C239.391 246.294 240.107 245.578 240.107 244.694C240.107 243.81 239.391 243.094 238.507 243.094C237.624 243.094 236.907 243.81 236.907 244.694C236.907 245.578 237.624 246.294 238.507 246.294Z" fill="white"/>
<path d="M270.294 243.094C270.275 245.345 271.114 247.519 272.641 249.174C273.353 249.971 274.224 250.61 275.197 251.05C276.171 251.491 277.226 251.724 278.294 251.734C280.534 251.734 282.561 250.667 283.948 249.174C285.474 247.519 286.314 245.345 286.294 243.094V231.574H270.294V243.094Z" fill="#003399"/>
<path d="M274.028 237.547C274.911 237.547 275.628 236.831 275.628 235.947C275.628 235.064 274.911 234.347 274.028 234.347C273.144 234.347 272.428 235.064 272.428 235.947C272.428 236.831 273.144 237.547 274.028 237.547Z" fill="white"/>
<path d="M282.881 237.547C283.765 237.547 284.481 236.831 284.481 235.947C284.481 235.064 283.765 234.347 282.881 234.347C281.997 234.347 281.281 235.064 281.281 235.947C281.281 236.831 281.997 237.547 282.881 237.547Z" fill="white"/>
<path d="M278.401 241.814C279.285 241.814 280.001 241.098 280.001 240.214C280.001 239.33 279.285 238.614 278.401 238.614C277.517 238.614 276.801 239.33 276.801 240.214C276.801 241.098 277.517 241.814 278.401 241.814Z" fill="white"/>
<path d="M274.028 246.294C274.911 246.294 275.628 245.578 275.628 244.694C275.628 243.81 274.911 243.094 274.028 243.094C273.144 243.094 272.428 243.81 272.428 244.694C272.428 245.578 273.144 246.294 274.028 246.294Z" fill="white"/>
<path d="M282.881 246.294C283.765 246.294 284.481 245.578 284.481 244.694C284.481 243.81 283.765 243.094 282.881 243.094C281.997 243.094 281.281 243.81 281.281 244.694C281.281 245.578 281.997 246.294 282.881 246.294Z" fill="white"/>
<path d="M248.107 270.614C248.088 272.865 248.927 275.04 250.454 276.694C251.166 277.491 252.037 278.13 253.011 278.571C253.984 279.011 255.039 279.244 256.107 279.254C258.347 279.254 260.374 278.187 261.761 276.694C263.288 275.04 264.127 272.865 264.107 270.614V259.094H248.107V270.614Z" fill="#003399"/>
<path d="M251.841 265.067C252.724 265.067 253.441 264.351 253.441 263.467C253.441 262.584 252.724 261.867 251.841 261.867C250.957 261.867 250.241 262.584 250.241 263.467C250.241 264.351 250.957 265.067 251.841 265.067Z" fill="white"/>
<path d="M260.694 265.067C261.578 265.067 262.294 264.351 262.294 263.467C262.294 262.584 261.578 261.867 260.694 261.867C259.81 261.867 259.094 262.584 259.094 263.467C259.094 264.351 259.81 265.067 260.694 265.067Z" fill="white"/>
<path d="M256.214 269.334C257.098 269.334 257.814 268.618 257.814 267.734C257.814 266.85 257.098 266.134 256.214 266.134C255.33 266.134 254.614 266.85 254.614 267.734C254.614 268.618 255.33 269.334 256.214 269.334Z" fill="white"/>
<path d="M251.841 273.814C252.724 273.814 253.441 273.098 253.441 272.214C253.441 271.33 252.724 270.614 251.841 270.614C250.957 270.614 250.241 271.33 250.241 272.214C250.241 273.098 250.957 273.814 251.841 273.814Z" fill="white"/>
<path d="M260.694 273.814C261.578 273.814 262.294 273.098 262.294 272.214C262.294 271.33 261.578 270.614 260.694 270.614C259.81 270.614 259.094 271.33 259.094 272.214C259.094 273.098 259.81 273.814 260.694 273.814Z" fill="white"/>
</g>
<defs>
<clipPath id="clip0_62_545">
<rect width="640" height="480" fill="white" transform="translate(0 0.5)"/>
</clipPath>
</defs>
</svg>
