<svg width="338" height="336" viewBox="0 0 338 336" fill="none" xmlns="http://www.w3.org/2000/svg">
<path d="M51.6284 293.219H265.41V304.516C265.41 312.505 261.424 320.168 254.328 325.817C247.232 331.467 237.608 334.641 227.573 334.641H89.466C79.4308 334.641 69.8067 331.467 62.7107 325.817C55.6148 320.168 51.6284 312.505 51.6284 304.516V293.219Z" fill="#D9A441" stroke="black" stroke-width="2" stroke-linecap="round" stroke-linejoin="round"/>
<path d="M239.87 247.278H264.464C268.27 247.177 272.062 247.687 275.615 248.777C279.168 249.867 282.409 251.515 285.145 253.623C287.881 255.732 290.056 258.257 291.541 261.048C293.026 263.84 293.79 266.84 293.788 269.872C293.788 276.064 290.699 282.002 285.2 286.381C279.7 290.759 272.242 293.219 264.464 293.219H52.574C48.7664 293.22 44.9975 292.612 41.4914 291.43C37.9852 290.248 34.8135 288.516 32.1656 286.337C29.5177 284.159 27.4475 281.578 26.0783 278.75C24.7091 275.921 24.0689 272.902 24.1958 269.872C24.0637 266.876 24.7076 263.892 26.0869 261.103C27.4663 258.314 29.5519 255.781 32.2138 253.662C34.8758 251.542 38.057 249.882 41.5598 248.784C45.0625 247.685 48.8117 247.173 52.574 247.278H135.817" fill="#4E342E"/>
<path d="M239.87 247.278H264.464C268.27 247.177 272.062 247.687 275.615 248.777C279.168 249.867 282.409 251.515 285.145 253.623C287.881 255.732 290.056 258.257 291.541 261.048C293.026 263.84 293.79 266.84 293.788 269.872C293.788 276.064 290.699 282.002 285.2 286.381C279.7 290.759 272.242 293.219 264.464 293.219H52.574C48.7664 293.22 44.9975 292.612 41.4914 291.43C37.9852 290.248 34.8135 288.516 32.1656 286.337C29.5177 284.159 27.4475 281.578 26.0783 278.75C24.7091 275.921 24.0689 272.902 24.1958 269.872C24.0637 266.876 24.7076 263.892 26.0869 261.103C27.4663 258.314 29.5519 255.781 32.2138 253.662C34.8758 251.542 38.057 249.882 41.5598 248.784C45.0625 247.685 48.8117 247.173 52.574 247.278H135.817" stroke="black" stroke-width="2" stroke-linecap="round" stroke-linejoin="round"/>
<path d="M293.789 232.216C293.717 236.189 291.678 239.978 288.113 242.759C286.455 244.238 284.409 245.408 282.121 246.189C279.833 246.97 277.358 247.341 274.87 247.278H225.681L193.519 276.65L161.357 247.278H42.1691C39.7271 247.281 37.3099 246.887 35.0653 246.122C32.8207 245.356 30.7956 244.234 29.1137 242.824C27.4318 241.415 26.1284 239.747 25.2829 237.923C24.4374 236.099 24.0675 234.157 24.196 232.216C24.0675 230.274 24.4374 228.332 25.2829 226.508C26.1284 224.684 27.4318 223.017 29.1137 221.607C30.7956 220.197 32.8207 219.075 35.0653 218.31C37.3099 217.544 39.7271 217.15 42.1691 217.153H274.87C279.887 217.153 284.7 218.74 288.248 221.565C291.796 224.39 293.789 228.221 293.789 232.216Z" fill="#FFA600" stroke="black" stroke-width="2" stroke-linecap="round" stroke-linejoin="round"/>
<g filter="url(#filter0_d_4_19)">
<path d="M132.979 150.125H185.006C206.581 150.125 227.273 156.949 242.529 169.095C257.785 181.242 266.357 197.716 266.357 214.894H51.6284C51.6284 197.716 60.1991 181.242 75.4553 169.095C90.7115 156.949 111.403 150.125 132.979 150.125Z" fill="#D9A441"/>
<path d="M132.979 150.125H185.006C206.581 150.125 227.273 156.949 242.529 169.095C257.785 181.242 266.357 197.716 266.357 214.894H51.6284C51.6284 197.716 60.1991 181.242 75.4553 169.095C90.7115 156.949 111.403 150.125 132.979 150.125Z" stroke="black" stroke-width="2" stroke-linecap="round" stroke-linejoin="round"/>
</g>
<path d="M105.547 184.016L116.898 193.806" stroke="black" stroke-width="2" stroke-linecap="round" stroke-linejoin="round"/>
<path d="M207.708 180.25L220.005 190.794" stroke="black" stroke-width="2" stroke-linecap="round" stroke-linejoin="round"/>
<path d="M150.952 184.769L164.195 174.978" stroke="black" stroke-width="2" stroke-linecap="round" stroke-linejoin="round"/>
<path d="M35.8 128.75C32.1 128.75 29.45 127.95 27.85 126.35C26.25 124.65 25.45 121.5 25.45 116.9C25.45 113.8 25.75 109.85 26.35 105.05C27.05 100.15 28.15 93.45 29.65 84.95C32.25 69.25 34.3 55.65 35.8 44.15C36.7 36.95 37.15 30.95 37.15 26.15C37.15 21.65 35.5 19.4 32.2 19.4C29.6 19.4 26.45 20.75 22.75 23.45C19.15 26.05 15.15 30.25 10.75 36.05C9.35 37.95 7.8 38.9 6.1 38.9C4.7 38.9 3.45 38.25 2.35 36.95C1.35 35.55 0.85 34 0.85 32.3C0.85 30.7 1.15 29.1 1.75 27.5C2.45 25.8 3.55 23.9 5.05 21.8C9.85 15.1 15.2 9.94999 21.1 6.34999C27 2.64999 32.9 0.799993 38.8 0.799993C44.3 0.799993 48.5 2.54999 51.4 6.05C54.4 9.54999 55.9 14.65 55.9 21.35C55.9 24.05 55.65 27.25 55.15 30.95C54.65 34.55 54.2 37.5 53.8 39.8C53.4 42.1 53.1 43.7 52.9 44.6C58.6 28.3 65 16.95 72.1 10.55C79.2 4.04999 87 0.799993 95.5 0.799993C102 0.799993 107.1 3.09999 110.8 7.69999C114.6 12.3 116.5 18.8 116.5 27.2C116.5 30.5 116.05 34.6 115.15 39.5C120.15 25.7 126 15.8 132.7 9.79999C139.4 3.79999 147.1 0.799993 155.8 0.799993C162.8 0.799993 168.15 3.04999 171.85 7.55C175.65 12.05 177.55 18.35 177.55 26.45C177.55 30.85 176.9 36.2 175.6 42.5L166.45 85.4C165.45 90.4 164.95 94.7 164.95 98.3C164.95 102.5 165.9 105.65 167.8 107.75C169.8 109.85 172.55 110.9 176.05 110.9C179.35 110.9 182.55 109.8 185.65 107.6C188.85 105.4 192.6 101.75 196.9 96.65C198.1 95.25 199.45 94.55 200.95 94.55C202.25 94.55 203.25 95.15 203.95 96.35C204.75 97.55 205.15 99.2 205.15 101.3C205.15 105.2 204.2 108.3 202.3 110.6C197.1 116.9 191.95 121.5 186.85 124.4C181.75 127.3 176.4 128.75 170.8 128.75C162.3 128.75 155.65 126.25 150.85 121.25C146.05 116.15 143.65 109.35 143.65 100.85C143.65 94.95 144.85 86.4 147.25 75.2L153.25 47.75C153.45 46.85 153.8 45.25 154.3 42.95C154.8 40.65 155.2 38.5 155.5 36.5C155.8 34.4 155.95 32.35 155.95 30.35C155.95 26.85 155.25 24.25 153.85 22.55C152.55 20.75 150.65 19.85 148.15 19.85C143.45 19.85 138.5 22.9 133.3 29C128.2 35 123.3 45 118.6 59C114 73 110.25 91.2 107.35 113.6C106.65 119.6 105.4 123.65 103.6 125.75C101.9 127.75 99.1 128.75 95.2 128.75C91.8 128.75 89.3 127.95 87.7 126.35C86.2 124.75 85.45 121.75 85.45 117.35C85.45 113.25 86 107.9 87.1 101.3C88.2 94.6 89.6 86.75 91.3 77.75C95.9 53.55 98.2 37.95 98.2 30.95C98.2 27.15 97.45 24.35 95.95 22.55C94.55 20.75 92.4 19.85 89.5 19.85C84.6 19.85 79.55 22.65 74.35 28.25C69.15 33.75 64.05 43.6 59.05 57.8C54.15 71.9 50.05 91 46.75 115.1C46.05 120.2 45 123.75 43.6 125.75C42.3 127.75 39.7 128.75 35.8 128.75ZM333.013 94.55C334.313 94.55 335.313 95.15 336.013 96.35C336.813 97.55 337.213 99.2 337.213 101.3C337.213 105.2 336.263 108.3 334.363 110.6C329.563 116.4 324.713 120.9 319.813 124.1C314.913 127.2 309.113 128.75 302.413 128.75C295.913 128.75 290.363 127 285.763 123.5C281.263 120 276.963 114 272.863 105.5C269.563 98.7 266.963 93.7 265.063 90.5C263.163 87.2 261.263 84.85 259.363 83.45C257.563 82.05 255.313 81.2 252.613 80.9C252.213 83 251.063 89.6 249.163 100.7C248.363 105.7 247.863 108.75 247.663 109.85C246.663 115.95 244.663 120.65 241.663 123.95C238.663 127.15 234.113 128.75 228.013 128.75C221.313 128.75 215.363 126.8 210.163 122.9C205.063 118.9 201.113 113.4 198.313 106.4C195.513 99.3 194.113 91.25 194.113 82.25C194.113 65.45 197.013 50.95 202.813 38.75C208.713 26.55 216.913 17.25 227.413 10.85C238.013 4.35 250.213 1.1 264.013 1.1C273.613 1.1 281.663 2.55 288.163 5.45C294.663 8.34999 299.463 12.35 302.563 17.45C305.763 22.55 307.363 28.3 307.363 34.7C307.363 40.3 306.013 45.8 303.313 51.2C300.713 56.5 296.763 61.2 291.463 65.3C286.163 69.4 279.713 72.45 272.113 74.45C276.913 75.75 280.613 77.85 283.213 80.75C285.813 83.65 288.413 87.9 291.013 93.5C293.813 99.5 296.563 103.9 299.263 106.7C302.063 109.5 305.263 110.9 308.863 110.9C312.063 110.9 315.113 109.85 318.013 107.75C320.913 105.55 324.563 101.85 328.963 96.65C330.163 95.25 331.513 94.55 333.013 94.55ZM231.913 80.75C228.513 80.75 226.163 79.95 224.863 78.35C223.663 76.75 223.063 74.95 223.063 72.95C223.063 70.55 223.813 68.65 225.313 67.25C226.913 65.85 228.713 65.15 230.713 65.15H234.463C236.063 55.35 237.563 46.9 238.963 39.8C240.263 33.3 244.463 30.05 251.563 30.05C257.263 30.05 260.113 32.6 260.113 37.7C260.113 38.8 260.063 39.65 259.963 40.25L255.463 65.15C260.863 64.85 265.763 63.55 270.163 61.25C274.663 58.95 278.213 55.75 280.813 51.65C283.513 47.55 284.863 42.9 284.863 37.7C284.863 31.4 282.713 26.45 278.413 22.85C274.113 19.25 267.813 17.45 259.513 17.45C249.713 17.45 241.113 19.9 233.713 24.8C226.413 29.6 220.713 36.8 216.613 46.4C212.513 55.9 210.463 67.5 210.463 81.2C210.463 87.6 211.113 93.1 212.413 97.7C213.713 102.3 215.313 105.75 217.213 108.05C219.113 110.35 220.913 111.5 222.613 111.5C223.913 111.5 224.963 110.85 225.763 109.55C226.663 108.25 227.363 106.15 227.863 103.25L231.913 80.75Z" fill="white"/>
<defs>
<filter id="filter0_d_4_19" x="46.6284" y="149.125" width="224.728" height="74.7688" filterUnits="userSpaceOnUse" color-interpolation-filters="sRGB">
<feFlood flood-opacity="0" result="BackgroundImageFix"/>
<feColorMatrix in="SourceAlpha" type="matrix" values="0 0 0 0 0 0 0 0 0 0 0 0 0 0 0 0 0 0 127 0" result="hardAlpha"/>
<feOffset dy="4"/>
<feGaussianBlur stdDeviation="2"/>
<feComposite in2="hardAlpha" operator="out"/>
<feColorMatrix type="matrix" values="0 0 0 0 0 0 0 0 0 0 0 0 0 0 0 0 0 0 0.25 0"/>
<feBlend mode="normal" in2="BackgroundImageFix" result="effect1_dropShadow_4_19"/>
<feBlend mode="normal" in="SourceGraphic" in2="effect1_dropShadow_4_19" result="shape"/>
</filter>
</defs>
</svg>
