<svg width="190" height="190" viewBox="0 0 190 190" fill="none" xmlns="http://www.w3.org/2000/svg">
<path d="M83.125 22.2805L41.9336 27.6094L51.4336 28.27L83.2363 26.4479L121.904 28.8415L125.838 27.769L141.684 27.2495L83.125 22.2805ZM34.1926 30.3704L36.6641 130.699L100.9 140.273L36.8941 138.084L34.1666 162.836L109.027 174.229L112.961 138.863L110.363 35.1389L82.791 33.2538C82.457 47.1661 62.0469 45.9415 62.2324 32.0329L34.1926 30.3704ZM152.186 31.2907L134.002 31.9735L135.004 132.518L151.109 158.012L148.66 133.705L152.186 31.2907ZM127.768 32.3446L118.787 35.1389L119.492 138.01L115.336 168.365L128.955 132.518L127.768 32.3446ZM132.592 140.088L119.975 172.744L148.363 163.727L132.592 140.088Z" fill="#FFA600"/>
<path d="M75 65.75C60.503 65.75 48.75 77.5048 48.75 91.9965C48.75 106.495 60.503 118.25 75 118.25C89.4952 118.25 101.25 106.495 101.25 91.9965C101.25 77.4995 89.4952 65.75 75 65.75ZM94.3795 107.242C93.931 107.699 93.3952 108.061 92.8041 108.307C92.2129 108.553 91.5783 108.677 90.9381 108.673C88.8635 108.673 86.5929 107.499 84.3712 105.277C83.5024 104.408 82.7297 103.634 82.371 103.175C83.7743 102.531 85.0781 101.689 86.2429 100.676L92.8841 105.748L87.8074 99.0971C88.8132 97.919 89.6217 96.5857 90.2014 95.1491C90.638 95.4562 91.471 96.2875 92.4143 97.2316C96.1076 100.926 96.8601 104.762 94.3795 107.242ZM93.6533 95.9935C92.1946 94.5357 91.4106 93.7544 90.7334 93.4438C90.7692 92.5521 89.5801 92.2109 89.0963 92.8916C85.3093 98.2353 80.8266 99.581 75 99.581C69.1734 99.581 64.6907 98.2361 60.9029 92.8916C60.3752 92.1479 58.9866 92.616 59.2938 93.6957C61.2826 100.7 68.0438 104.779 75 104.779C76.94 104.775 78.8663 104.455 80.7033 103.831C81.0769 104.454 81.839 105.217 83.1349 106.514C85.5403 108.918 88.0699 110.242 90.4823 110.393C86.2945 113.926 80.894 116.062 75 116.062C61.7315 116.062 50.9375 105.267 50.9375 91.9965C50.9375 78.7306 61.7315 67.9375 75 67.9375C88.2685 67.9375 99.0625 78.7306 99.0625 91.9965C99.0625 95.3128 98.3835 98.4715 97.1646 101.348C96.6379 99.6895 95.5389 97.8809 93.6533 95.9935Z" fill="#A70E15"/>
<path d="M65.4319 79.0378C62.981 79.0378 60.5301 81.276 58.9044 85.7482C58.7434 86.1988 59.5816 87.0108 60.0016 86.5689C61.5784 84.9055 63.464 84.2432 65.4328 84.2432C67.4015 84.2432 69.2863 84.9055 70.8639 86.5689C71.283 87.0108 72.1221 86.1979 71.9611 85.7482C70.3336 81.2752 67.8828 79.0378 65.4319 79.0378ZM84.5681 79.0378C82.1173 79.0378 79.6664 81.276 78.0398 85.7482C77.8788 86.1988 78.7179 87.0108 79.137 86.5689C80.7146 84.9055 82.5994 84.2432 84.5681 84.2432C86.5369 84.2432 88.4216 84.9055 89.9993 86.5689C90.4184 87.0108 91.2575 86.1979 91.0965 85.7482C89.469 81.2752 87.0181 79.0378 84.5681 79.0378Z" fill="#A70E15"/>
</svg>
