<svg width="272" height="197" viewBox="0 0 272 197" fill="none" xmlns="http://www.w3.org/2000/svg">
<path d="M28.4573 151.812H242.239V163.719C242.239 172.139 238.253 180.215 231.157 186.169C224.061 192.124 214.437 195.469 204.402 195.469H66.2948C56.2597 195.469 46.6355 192.124 39.5396 186.169C32.4437 180.215 28.4573 172.139 28.4573 163.719V151.812Z" fill="#D9A441" stroke="black" stroke-width="2" stroke-linecap="round" stroke-linejoin="round"/>
<path d="M216.699 103.394H241.293C245.099 103.287 248.891 103.825 252.444 104.973C255.997 106.122 259.238 107.859 261.974 110.081C264.71 112.303 266.885 114.964 268.37 117.907C269.855 120.849 270.619 124.011 270.617 127.206C270.617 133.732 267.528 139.991 262.028 144.605C256.529 149.22 249.071 151.812 241.293 151.812H29.4028C25.5952 151.814 21.8264 151.173 18.3202 149.927C14.8141 148.681 11.6424 146.856 8.99449 144.56C6.34659 142.264 4.27635 139.544 2.90715 136.563C1.53795 133.582 0.897759 130.399 1.02468 127.206C0.892548 124.049 1.53643 120.903 2.91581 117.964C4.29518 115.025 6.38074 112.355 9.0427 110.122C11.7047 107.888 14.8859 106.138 18.3886 104.98C21.8914 103.823 25.6406 103.283 29.4028 103.394H112.646" fill="#4E342E"/>
<path d="M216.699 103.394H241.293C245.099 103.287 248.891 103.825 252.444 104.973C255.997 106.122 259.238 107.859 261.974 110.081C264.71 112.303 266.885 114.964 268.37 117.907C269.855 120.849 270.619 124.011 270.617 127.206C270.617 133.732 267.528 139.991 262.028 144.605C256.529 149.22 249.071 151.812 241.293 151.812H29.4028C25.5952 151.814 21.8264 151.173 18.3202 149.927C14.8141 148.681 11.6424 146.856 8.99449 144.56C6.34659 142.264 4.27635 139.544 2.90715 136.563C1.53795 133.582 0.897759 130.399 1.02468 127.206C0.892548 124.049 1.53643 120.903 2.91581 117.964C4.29518 115.025 6.38074 112.355 9.0427 110.122C11.7047 107.888 14.8859 106.138 18.3886 104.98C21.8914 103.823 25.6406 103.283 29.4028 103.394H112.646" stroke="black" stroke-width="2" stroke-linecap="round" stroke-linejoin="round"/>
<path d="M270.617 87.5187C270.546 91.706 268.507 95.7003 264.942 98.6313C263.284 100.189 261.238 101.423 258.95 102.246C256.662 103.069 254.187 103.46 251.699 103.394H202.51L170.348 134.35L138.186 103.394H18.998C16.556 103.397 14.1388 102.982 11.8942 102.175C9.64959 101.368 7.62444 100.185 5.94253 98.6997C4.26062 97.2141 2.95727 95.4566 2.11178 93.5342C1.26628 91.6118 0.896379 89.565 1.02491 87.5187C0.896379 85.4724 1.26628 83.4257 2.11178 81.5033C2.95727 79.581 4.26062 77.8234 5.94253 76.3378C7.62444 74.8522 9.64959 73.6698 11.8942 72.8627C14.1388 72.0557 16.556 71.6409 18.998 71.6437H251.699C256.716 71.6437 261.529 73.3162 265.077 76.2934C268.624 79.2705 270.617 83.3084 270.617 87.5187Z" fill="#FFA600" stroke="black" stroke-width="2" stroke-linecap="round" stroke-linejoin="round"/>
<g filter="url(#filter0_d_4_19)">
<path d="M109.808 1H161.834C183.41 1 204.102 8.19187 219.358 20.9936C234.614 33.7953 243.185 51.1582 243.185 69.2625H28.4573C28.4573 51.1582 37.0279 33.7953 52.2841 20.9936C67.5404 8.19187 88.2322 1 109.808 1Z" fill="#D9A441"/>
<path d="M109.808 1H161.834C183.41 1 204.102 8.19187 219.358 20.9936C234.614 33.7953 243.185 51.1582 243.185 69.2625H28.4573C28.4573 51.1582 37.0279 33.7953 52.2841 20.9936C67.5404 8.19187 88.2322 1 109.808 1Z" stroke="black" stroke-width="2" stroke-linecap="round" stroke-linejoin="round"/>
</g>
<path d="M82.3756 36.7188L93.727 47.0375" stroke="black" stroke-width="2" stroke-linecap="round" stroke-linejoin="round"/>
<path d="M184.537 32.75L196.834 43.8625" stroke="black" stroke-width="2" stroke-linecap="round" stroke-linejoin="round"/>
<path d="M127.781 37.5125L141.024 27.1937" stroke="black" stroke-width="2" stroke-linecap="round" stroke-linejoin="round"/>
<path d="M210.25 11.9583H206.333C204.518 10.8478 202.59 9.95099 200.583 9.2845C194.258 7.11718 185.906 6 175.75 6C165.594 6 157.242 7.11718 150.932 9.2845C145.879 11.031 143.654 12.9563 142.935 13.7048C140.615 12.5551 138.076 11.9583 135.504 11.9583C132.932 11.9583 130.392 12.5551 128.072 13.7048C127.353 12.96 125.128 11.031 120.076 9.2845C113.758 7.11718 105.406 6 95.25 6C85.0941 6 76.7422 7.11718 70.4316 9.2845C68.4248 9.95099 66.4961 10.8478 64.6816 11.9583H60.75C59.225 11.9583 57.7625 12.586 56.6841 13.7034C55.6058 14.8208 55 16.3363 55 17.9165C55 19.4968 55.6058 21.0123 56.6841 22.1297C57.7625 23.2471 59.225 23.8748 60.75 23.8748H60.8111C61.1705 40.8037 63.1255 50.9775 67.3194 58.2205C69.9466 62.8968 73.974 66.5576 78.7906 68.6475C83.1858 70.5988 88.5728 71.5484 95.25 71.5484C103.929 71.5484 116.266 70.1668 123.181 58.2279C126.659 52.2175 128.604 44.1925 129.365 31.9669C129.619 31.286 129.749 30.5627 129.75 29.8331C129.75 28.2528 130.356 26.7373 131.434 25.6199C132.512 24.5025 133.975 23.8748 135.5 23.8748C137.025 23.8748 138.488 24.5025 139.566 25.6199C140.644 26.7373 141.25 28.2528 141.25 29.8331C141.252 30.5602 141.382 31.2809 141.635 31.9594C142.396 44.185 144.341 52.2101 147.819 58.2205C150.447 62.8968 154.474 66.5576 159.291 68.6475C163.686 70.5988 169.073 71.5484 175.75 71.5484C184.429 71.5484 196.766 70.1668 203.681 58.2279C207.875 50.9849 209.837 40.8112 210.189 23.8823H210.25C211.775 23.8823 213.238 23.2545 214.316 22.1371C215.394 21.0197 216 19.5042 216 17.924C216 16.3438 215.394 14.8282 214.316 13.7109C213.238 12.5935 211.775 11.9657 210.25 11.9657V11.9583Z" fill="black"/>
<path d="M176.923 15C189.972 15 200.552 25.6006 200.552 38.674C200.552 51.7474 189.972 62.348 176.923 62.348C163.875 62.348 153.295 51.7676 153.295 38.6942C153.295 25.6006 163.875 15 176.923 15Z" fill="#E5E4DF"/>
<path d="M176.924 21.313C186.012 21.313 193.361 29.0962 193.361 38.6739C193.361 48.2516 185.992 56.0348 176.924 56.0348C167.855 56.0348 160.486 48.2516 160.486 38.6739C160.486 29.0962 167.855 21.313 176.924 21.313Z" fill="#00B1FF"/>
<path d="M176.923 30.7826C182.032 30.7826 186.169 34.3139 186.169 38.6739C186.169 43.034 182.032 46.5652 176.923 46.5652C171.815 46.5652 167.678 43.034 167.678 38.6739C167.678 34.3139 171.815 30.7826 176.923 30.7826Z" fill="#2B3B47"/>
<path d="M183.601 29.7303C185.586 29.7303 187.197 31.3805 187.197 33.413C187.197 35.4454 185.586 37.0956 183.601 37.0956C181.617 37.0956 180.005 35.4454 180.005 33.413C180.005 31.3805 181.617 29.7303 183.601 29.7303Z" fill="#D4EDF6"/>
<path d="M185.142 36.5145C184.59 34.0293 183.08 31.945 181.055 30.7826C180.411 31.444 180.005 32.3859 180.005 33.4281C180.005 35.4523 181.515 37.0957 183.375 37.0957C184.001 37.0957 184.627 36.8752 185.142 36.5145Z" fill="#D6DBDE"/>
<path d="M91.6557 16.0521C105.271 16.0521 116.311 26.4171 116.311 39.2C116.311 51.9829 105.271 62.3479 91.6557 62.3479C78.0402 62.3479 67 52.0027 67 39.2198C67 26.4171 78.0402 16.0521 91.6557 16.0521Z" fill="#E5E4DF"/>
<path d="M91.6558 23.4174C100.744 23.4174 108.093 30.7289 108.093 39.7261C108.093 48.7233 100.724 56.0348 91.6558 56.0348C82.5877 56.0348 75.2186 48.7233 75.2186 39.7261C75.2186 30.7289 82.5877 23.4174 91.6558 23.4174Z" fill="#00B1FF"/>
<path d="M91.6558 30.7826C96.7642 30.7826 100.902 34.5493 100.902 39.2C100.902 43.8507 96.7642 47.6174 91.6558 47.6174C86.5473 47.6174 82.4099 43.8507 82.4099 39.2192C82.4099 34.5877 86.5473 30.7826 91.6558 30.7826Z" fill="#2B3B47"/>
<path d="M98.847 30.7826C101.115 30.7826 102.956 32.4327 102.956 34.4652C102.956 36.4977 101.115 38.1478 98.847 38.1478C96.579 38.1478 94.7377 36.4977 94.7377 34.4652C94.7377 32.4327 96.579 30.7826 98.847 30.7826Z" fill="#D4EDF6"/>
<path d="M100.902 37.5666C100.239 35.0814 98.4272 32.9971 95.997 31.8347C95.2237 32.4961 94.7377 33.438 94.7377 34.4802C94.7377 36.5044 96.5493 38.1478 98.7807 38.1478C99.554 38.1478 100.283 37.9273 100.902 37.5666Z" fill="#D6DBDE"/>
<defs>
<filter id="filter0_d_4_19" x="23.4573" y="0" width="224.728" height="78.2626" filterUnits="userSpaceOnUse" color-interpolation-filters="sRGB">
<feFlood flood-opacity="0" result="BackgroundImageFix"/>
<feColorMatrix in="SourceAlpha" type="matrix" values="0 0 0 0 0 0 0 0 0 0 0 0 0 0 0 0 0 0 127 0" result="hardAlpha"/>
<feOffset dy="4"/>
<feGaussianBlur stdDeviation="2"/>
<feComposite in2="hardAlpha" operator="out"/>
<feColorMatrix type="matrix" values="0 0 0 0 0 0 0 0 0 0 0 0 0 0 0 0 0 0 0.25 0"/>
<feBlend mode="normal" in2="BackgroundImageFix" result="effect1_dropShadow_4_19"/>
<feBlend mode="normal" in="SourceGraphic" in2="effect1_dropShadow_4_19" result="shape"/>
</filter>
</defs>
</svg>
