<svg width="272" height="187" viewBox="0 0 272 187" fill="none" xmlns="http://www.w3.org/2000/svg">
<path d="M28.6284 144.219H242.41V155.516C242.41 163.505 238.424 171.168 231.328 176.817C224.232 182.467 214.608 185.641 204.573 185.641H66.466C56.4308 185.641 46.8067 182.467 39.7107 176.817C32.6148 171.168 28.6284 163.505 28.6284 155.516V144.219Z" fill="#D9A441" stroke="black" stroke-width="2" stroke-linecap="round" stroke-linejoin="round"/>
<path d="M216.87 98.2781H241.464C245.27 98.1771 249.062 98.6869 252.615 99.777C256.168 100.867 259.409 102.515 262.145 104.623C264.881 106.732 267.056 109.257 268.541 112.048C270.026 114.84 270.79 117.84 270.788 120.872C270.788 127.064 267.699 133.002 262.2 137.381C256.7 141.759 249.242 144.219 241.464 144.219H29.574C25.7664 144.22 21.9975 143.612 18.4914 142.43C14.9852 141.248 11.8135 139.516 9.16563 137.337C6.51773 135.159 4.44749 132.578 3.07829 129.75C1.70909 126.921 1.0689 123.902 1.19582 120.872C1.06369 117.876 1.70757 114.892 3.08695 112.103C4.46633 109.314 6.55188 106.781 9.21384 104.662C11.8758 102.542 15.057 100.882 18.5598 99.7836C22.0625 98.6854 25.8117 98.1729 29.574 98.2781H112.817" fill="#4E342E"/>
<path d="M216.87 98.2781H241.464C245.27 98.1771 249.062 98.6869 252.615 99.777C256.168 100.867 259.409 102.515 262.145 104.623C264.881 106.732 267.056 109.257 268.541 112.048C270.026 114.84 270.79 117.84 270.788 120.872C270.788 127.064 267.699 133.002 262.2 137.381C256.7 141.759 249.242 144.219 241.464 144.219H29.574C25.7664 144.22 21.9975 143.612 18.4914 142.43C14.9852 141.248 11.8135 139.516 9.16563 137.337C6.51773 135.159 4.44749 132.578 3.07829 129.75C1.70909 126.921 1.0689 123.902 1.19582 120.872C1.06369 117.876 1.70757 114.892 3.08695 112.103C4.46633 109.314 6.55188 106.781 9.21384 104.662C11.8758 102.542 15.057 100.882 18.5598 99.7836C22.0625 98.6854 25.8117 98.1729 29.574 98.2781H112.817" stroke="black" stroke-width="2" stroke-linecap="round" stroke-linejoin="round"/>
<path d="M270.789 83.2156C270.717 87.1886 268.678 90.9784 265.113 93.7594C263.455 95.2376 261.409 96.4083 259.121 97.189C256.833 97.9697 254.358 98.3414 251.87 98.2781H202.681L170.519 127.65L138.357 98.2781H19.1691C16.7271 98.2808 14.3099 97.8873 12.0653 97.1216C9.82074 96.3558 7.79558 95.2339 6.11367 93.8243C4.43176 92.4148 3.12841 90.7472 2.28292 88.9232C1.43742 87.0992 1.06752 85.1571 1.19605 83.2156C1.06752 81.2741 1.43742 79.3321 2.28292 77.5081C3.12841 75.6841 4.43176 74.0165 6.11367 72.607C7.79558 71.1974 9.82074 70.0755 12.0653 69.3097C14.3099 68.544 16.7271 68.1504 19.1691 68.1531H251.87C256.887 68.1531 261.7 69.74 265.248 72.5648C268.796 75.3895 270.789 79.2208 270.789 83.2156Z" fill="#FFA600" stroke="black" stroke-width="2" stroke-linecap="round" stroke-linejoin="round"/>
<g filter="url(#filter0_d_56_22)">
<path d="M109.979 1.125H162.006C183.581 1.125 204.273 7.94878 219.529 20.0953C234.785 32.2418 243.357 48.7161 243.357 65.8938H28.6284C28.6284 48.7161 37.1991 32.2418 52.4553 20.0953C67.7115 7.94878 88.4033 1.125 109.979 1.125Z" fill="#D9A441"/>
<path d="M109.979 1.125H162.006C183.581 1.125 204.273 7.94878 219.529 20.0953C234.785 32.2418 243.357 48.7161 243.357 65.8938H28.6284C28.6284 48.7161 37.1991 32.2418 52.4553 20.0953C67.7115 7.94878 88.4033 1.125 109.979 1.125Z" stroke="black" stroke-width="2" stroke-linecap="round" stroke-linejoin="round"/>
</g>
<path d="M82.5468 35.0156L93.8981 44.8063" stroke="black" stroke-width="2" stroke-linecap="round" stroke-linejoin="round"/>
<path d="M184.708 31.25L197.005 41.7937" stroke="black" stroke-width="2" stroke-linecap="round" stroke-linejoin="round"/>
<path d="M127.952 35.7688L141.195 25.9781" stroke="black" stroke-width="2" stroke-linecap="round" stroke-linejoin="round"/>
<defs>
<filter id="filter0_d_56_22" x="23.6284" y="0.125" width="224.728" height="74.7688" filterUnits="userSpaceOnUse" color-interpolation-filters="sRGB">
<feFlood flood-opacity="0" result="BackgroundImageFix"/>
<feColorMatrix in="SourceAlpha" type="matrix" values="0 0 0 0 0 0 0 0 0 0 0 0 0 0 0 0 0 0 127 0" result="hardAlpha"/>
<feOffset dy="4"/>
<feGaussianBlur stdDeviation="2"/>
<feComposite in2="hardAlpha" operator="out"/>
<feColorMatrix type="matrix" values="0 0 0 0 0 0 0 0 0 0 0 0 0 0 0 0 0 0 0.25 0"/>
<feBlend mode="normal" in2="BackgroundImageFix" result="effect1_dropShadow_56_22"/>
<feBlend mode="normal" in="SourceGraphic" in2="effect1_dropShadow_56_22" result="shape"/>
</filter>
</defs>
</svg>
