<svg width="344" height="320" viewBox="0 0 344 320" fill="none" xmlns="http://www.w3.org/2000/svg">
<path d="M66.6284 277.219H280.41V288.516C280.41 296.505 276.424 304.168 269.328 309.817C262.232 315.467 252.608 318.641 242.573 318.641H104.466C94.4308 318.641 84.8067 315.467 77.7107 309.817C70.6148 304.168 66.6284 296.505 66.6284 288.516V277.219Z" fill="#D9A441" stroke="black" stroke-width="2" stroke-linecap="round" stroke-linejoin="round"/>
<path d="M254.87 231.278H279.464C283.27 231.177 287.062 231.687 290.615 232.777C294.168 233.867 297.409 235.515 300.145 237.623C302.881 239.732 305.056 242.257 306.541 245.048C308.026 247.84 308.79 250.84 308.788 253.872C308.788 260.064 305.699 266.002 300.2 270.381C294.7 274.759 287.242 277.219 279.464 277.219H67.574C63.7664 277.22 59.9975 276.612 56.4914 275.43C52.9852 274.248 49.8135 272.516 47.1656 270.337C44.5177 268.159 42.4475 265.578 41.0783 262.75C39.7091 259.921 39.0689 256.902 39.1958 253.872C39.0637 250.876 39.7076 247.892 41.0869 245.103C42.4663 242.314 44.5519 239.781 47.2138 237.662C49.8758 235.542 53.057 233.882 56.5598 232.784C60.0625 231.685 63.8117 231.173 67.574 231.278H150.817" fill="#4E342E"/>
<path d="M254.87 231.278H279.464C283.27 231.177 287.062 231.687 290.615 232.777C294.168 233.867 297.409 235.515 300.145 237.623C302.881 239.732 305.056 242.257 306.541 245.048C308.026 247.84 308.79 250.84 308.788 253.872C308.788 260.064 305.699 266.002 300.2 270.381C294.7 274.759 287.242 277.219 279.464 277.219H67.574C63.7664 277.22 59.9975 276.612 56.4914 275.43C52.9852 274.248 49.8135 272.516 47.1656 270.337C44.5177 268.159 42.4475 265.578 41.0783 262.75C39.7091 259.921 39.0689 256.902 39.1958 253.872C39.0637 250.876 39.7076 247.892 41.0869 245.103C42.4663 242.314 44.5519 239.781 47.2138 237.662C49.8758 235.542 53.057 233.882 56.5598 232.784C60.0625 231.685 63.8117 231.173 67.574 231.278H150.817" stroke="black" stroke-width="2" stroke-linecap="round" stroke-linejoin="round"/>
<path d="M308.789 216.216C308.717 220.189 306.678 223.978 303.113 226.759C301.455 228.238 299.409 229.408 297.121 230.189C294.833 230.97 292.358 231.341 289.87 231.278H240.681L208.519 260.65L176.357 231.278H57.1691C54.7271 231.281 52.3099 230.887 50.0653 230.122C47.8207 229.356 45.7956 228.234 44.1137 226.824C42.4318 225.415 41.1284 223.747 40.2829 221.923C39.4374 220.099 39.0675 218.157 39.196 216.216C39.0675 214.274 39.4374 212.332 40.2829 210.508C41.1284 208.684 42.4318 207.017 44.1137 205.607C45.7956 204.197 47.8207 203.075 50.0653 202.31C52.3099 201.544 54.7271 201.15 57.1691 201.153H289.87C294.887 201.153 299.7 202.74 303.248 205.565C306.796 208.39 308.789 212.221 308.789 216.216Z" fill="#FFA600" stroke="black" stroke-width="2" stroke-linecap="round" stroke-linejoin="round"/>
<g filter="url(#filter0_d_56_21)">
<path d="M147.979 134.125H200.006C221.581 134.125 242.273 140.949 257.529 153.095C272.785 165.242 281.357 181.716 281.357 198.894H66.6284C66.6284 181.716 75.1991 165.242 90.4553 153.095C105.711 140.949 126.403 134.125 147.979 134.125Z" fill="#D9A441"/>
<path d="M147.979 134.125H200.006C221.581 134.125 242.273 140.949 257.529 153.095C272.785 165.242 281.357 181.716 281.357 198.894H66.6284C66.6284 181.716 75.1991 165.242 90.4553 153.095C105.711 140.949 126.403 134.125 147.979 134.125Z" stroke="black" stroke-width="2" stroke-linecap="round" stroke-linejoin="round"/>
</g>
<path d="M120.547 168.016L131.898 177.806" stroke="black" stroke-width="2" stroke-linecap="round" stroke-linejoin="round"/>
<path d="M222.708 164.25L235.005 174.794" stroke="black" stroke-width="2" stroke-linecap="round" stroke-linejoin="round"/>
<path d="M165.952 168.769L179.195 158.978" stroke="black" stroke-width="2" stroke-linecap="round" stroke-linejoin="round"/>
<mask id="path-9-outside-1_56_21" maskUnits="userSpaceOnUse" x="0" y="0" width="344" height="135" fill="black">
<rect fill="white" width="344" height="135"/>
<path d="M38.8 131.75C35.1 131.75 32.45 130.95 30.85 129.35C29.25 127.65 28.45 124.5 28.45 119.9C28.45 116.8 28.75 112.85 29.35 108.05C30.05 103.15 31.15 96.45 32.65 87.95C35.25 72.25 37.3 58.65 38.8 47.15C39.7 39.95 40.15 33.95 40.15 29.15C40.15 24.65 38.5 22.4 35.2 22.4C32.6 22.4 29.45 23.75 25.75 26.45C22.15 29.05 18.15 33.25 13.75 39.05C12.35 40.95 10.8 41.9 9.1 41.9C7.7 41.9 6.45 41.25 5.35 39.95C4.35 38.55 3.85 37 3.85 35.3C3.85 33.7 4.15 32.1 4.75 30.5C5.45 28.8 6.55 26.9 8.05 24.8C12.85 18.1 18.2 12.95 24.1 9.34999C30 5.64999 35.9 3.79999 41.8 3.79999C47.3 3.79999 51.5 5.54999 54.4 9.05C57.4 12.55 58.9 17.65 58.9 24.35C58.9 27.05 58.65 30.25 58.15 33.95C57.65 37.55 57.2 40.5 56.8 42.8C56.4 45.1 56.1 46.7 55.9 47.6C61.6 31.3 68 19.95 75.1 13.55C82.2 7.04999 90 3.79999 98.5 3.79999C105 3.79999 110.1 6.09999 113.8 10.7C117.6 15.3 119.5 21.8 119.5 30.2C119.5 33.5 119.05 37.6 118.15 42.5C123.15 28.7 129 18.8 135.7 12.8C142.4 6.79999 150.1 3.79999 158.8 3.79999C165.8 3.79999 171.15 6.04999 174.85 10.55C178.65 15.05 180.55 21.35 180.55 29.45C180.55 33.85 179.9 39.2 178.6 45.5L169.45 88.4C168.45 93.4 167.95 97.7 167.95 101.3C167.95 105.5 168.9 108.65 170.8 110.75C172.8 112.85 175.55 113.9 179.05 113.9C182.35 113.9 185.55 112.8 188.65 110.6C191.85 108.4 195.6 104.75 199.9 99.65C201.1 98.25 202.45 97.55 203.95 97.55C205.25 97.55 206.25 98.15 206.95 99.35C207.75 100.55 208.15 102.2 208.15 104.3C208.15 108.2 207.2 111.3 205.3 113.6C200.1 119.9 194.95 124.5 189.85 127.4C184.75 130.3 179.4 131.75 173.8 131.75C165.3 131.75 158.65 129.25 153.85 124.25C149.05 119.15 146.65 112.35 146.65 103.85C146.65 97.95 147.85 89.4 150.25 78.2L156.25 50.75C156.45 49.85 156.8 48.25 157.3 45.95C157.8 43.65 158.2 41.5 158.5 39.5C158.8 37.4 158.95 35.35 158.95 33.35C158.95 29.85 158.25 27.25 156.85 25.55C155.55 23.75 153.65 22.85 151.15 22.85C146.45 22.85 141.5 25.9 136.3 32C131.2 38 126.3 48 121.6 62C117 76 113.25 94.2 110.35 116.6C109.65 122.6 108.4 126.65 106.6 128.75C104.9 130.75 102.1 131.75 98.2 131.75C94.8 131.75 92.3 130.95 90.7 129.35C89.2 127.75 88.45 124.75 88.45 120.35C88.45 116.25 89 110.9 90.1 104.3C91.2 97.6 92.6 89.75 94.3 80.75C98.9 56.55 101.2 40.95 101.2 33.95C101.2 30.15 100.45 27.35 98.95 25.55C97.55 23.75 95.4 22.85 92.5 22.85C87.6 22.85 82.55 25.65 77.35 31.25C72.15 36.75 67.05 46.6 62.05 60.8C57.15 74.9 53.05 94 49.75 118.1C49.05 123.2 48 126.75 46.6 128.75C45.3 130.75 42.7 131.75 38.8 131.75ZM336.013 97.55C337.313 97.55 338.313 98.15 339.013 99.35C339.813 100.55 340.213 102.2 340.213 104.3C340.213 108.2 339.263 111.3 337.363 113.6C332.563 119.4 327.713 123.9 322.813 127.1C317.913 130.2 312.113 131.75 305.413 131.75C298.913 131.75 293.363 130 288.763 126.5C284.263 123 279.963 117 275.863 108.5C272.563 101.7 269.963 96.7 268.063 93.5C266.163 90.2 264.263 87.85 262.363 86.45C260.563 85.05 258.313 84.2 255.613 83.9C255.213 86 254.063 92.6 252.163 103.7C251.363 108.7 250.863 111.75 250.663 112.85C249.663 118.95 247.663 123.65 244.663 126.95C241.663 130.15 237.113 131.75 231.013 131.75C224.313 131.75 218.363 129.8 213.163 125.9C208.063 121.9 204.113 116.4 201.313 109.4C198.513 102.3 197.113 94.25 197.113 85.25C197.113 68.45 200.013 53.95 205.813 41.75C211.713 29.55 219.913 20.25 230.413 13.85C241.013 7.35 253.213 4.1 267.013 4.1C276.613 4.1 284.663 5.55 291.163 8.45C297.663 11.35 302.463 15.35 305.563 20.45C308.763 25.55 310.363 31.3 310.363 37.7C310.363 43.3 309.013 48.8 306.313 54.2C303.713 59.5 299.763 64.2 294.463 68.3C289.163 72.4 282.713 75.45 275.113 77.45C279.913 78.75 283.613 80.85 286.213 83.75C288.813 86.65 291.413 90.9 294.013 96.5C296.813 102.5 299.563 106.9 302.263 109.7C305.063 112.5 308.263 113.9 311.863 113.9C315.063 113.9 318.113 112.85 321.013 110.75C323.913 108.55 327.563 104.85 331.963 99.65C333.163 98.25 334.513 97.55 336.013 97.55ZM234.913 83.75C231.513 83.75 229.163 82.95 227.863 81.35C226.663 79.75 226.063 77.95 226.063 75.95C226.063 73.55 226.813 71.65 228.313 70.25C229.913 68.85 231.713 68.15 233.713 68.15H237.463C239.063 58.35 240.563 49.9 241.963 42.8C243.263 36.3 247.463 33.05 254.563 33.05C260.263 33.05 263.113 35.6 263.113 40.7C263.113 41.8 263.063 42.65 262.963 43.25L258.463 68.15C263.863 67.85 268.763 66.55 273.163 64.25C277.663 61.95 281.213 58.75 283.813 54.65C286.513 50.55 287.863 45.9 287.863 40.7C287.863 34.4 285.713 29.45 281.413 25.85C277.113 22.25 270.813 20.45 262.513 20.45C252.713 20.45 244.113 22.9 236.713 27.8C229.413 32.6 223.713 39.8 219.613 49.4C215.513 58.9 213.463 70.5 213.463 84.2C213.463 90.6 214.113 96.1 215.413 100.7C216.713 105.3 218.313 108.75 220.213 111.05C222.113 113.35 223.913 114.5 225.613 114.5C226.913 114.5 227.963 113.85 228.763 112.55C229.663 111.25 230.363 109.15 230.863 106.25L234.913 83.75Z"/>
</mask>
<path d="M38.8 131.75C35.1 131.75 32.45 130.95 30.85 129.35C29.25 127.65 28.45 124.5 28.45 119.9C28.45 116.8 28.75 112.85 29.35 108.05C30.05 103.15 31.15 96.45 32.65 87.95C35.25 72.25 37.3 58.65 38.8 47.15C39.7 39.95 40.15 33.95 40.15 29.15C40.15 24.65 38.5 22.4 35.2 22.4C32.6 22.4 29.45 23.75 25.75 26.45C22.15 29.05 18.15 33.25 13.75 39.05C12.35 40.95 10.8 41.9 9.1 41.9C7.7 41.9 6.45 41.25 5.35 39.95C4.35 38.55 3.85 37 3.85 35.3C3.85 33.7 4.15 32.1 4.75 30.5C5.45 28.8 6.55 26.9 8.05 24.8C12.85 18.1 18.2 12.95 24.1 9.34999C30 5.64999 35.9 3.79999 41.8 3.79999C47.3 3.79999 51.5 5.54999 54.4 9.05C57.4 12.55 58.9 17.65 58.9 24.35C58.9 27.05 58.65 30.25 58.15 33.95C57.65 37.55 57.2 40.5 56.8 42.8C56.4 45.1 56.1 46.7 55.9 47.6C61.6 31.3 68 19.95 75.1 13.55C82.2 7.04999 90 3.79999 98.5 3.79999C105 3.79999 110.1 6.09999 113.8 10.7C117.6 15.3 119.5 21.8 119.5 30.2C119.5 33.5 119.05 37.6 118.15 42.5C123.15 28.7 129 18.8 135.7 12.8C142.4 6.79999 150.1 3.79999 158.8 3.79999C165.8 3.79999 171.15 6.04999 174.85 10.55C178.65 15.05 180.55 21.35 180.55 29.45C180.55 33.85 179.9 39.2 178.6 45.5L169.45 88.4C168.45 93.4 167.95 97.7 167.95 101.3C167.95 105.5 168.9 108.65 170.8 110.75C172.8 112.85 175.55 113.9 179.05 113.9C182.35 113.9 185.55 112.8 188.65 110.6C191.85 108.4 195.6 104.75 199.9 99.65C201.1 98.25 202.45 97.55 203.95 97.55C205.25 97.55 206.25 98.15 206.95 99.35C207.75 100.55 208.15 102.2 208.15 104.3C208.15 108.2 207.2 111.3 205.3 113.6C200.1 119.9 194.95 124.5 189.85 127.4C184.75 130.3 179.4 131.75 173.8 131.75C165.3 131.75 158.65 129.25 153.85 124.25C149.05 119.15 146.65 112.35 146.65 103.85C146.65 97.95 147.85 89.4 150.25 78.2L156.25 50.75C156.45 49.85 156.8 48.25 157.3 45.95C157.8 43.65 158.2 41.5 158.5 39.5C158.8 37.4 158.95 35.35 158.95 33.35C158.95 29.85 158.25 27.25 156.85 25.55C155.55 23.75 153.65 22.85 151.15 22.85C146.45 22.85 141.5 25.9 136.3 32C131.2 38 126.3 48 121.6 62C117 76 113.25 94.2 110.35 116.6C109.65 122.6 108.4 126.65 106.6 128.75C104.9 130.75 102.1 131.75 98.2 131.75C94.8 131.75 92.3 130.95 90.7 129.35C89.2 127.75 88.45 124.75 88.45 120.35C88.45 116.25 89 110.9 90.1 104.3C91.2 97.6 92.6 89.75 94.3 80.75C98.9 56.55 101.2 40.95 101.2 33.95C101.2 30.15 100.45 27.35 98.95 25.55C97.55 23.75 95.4 22.85 92.5 22.85C87.6 22.85 82.55 25.65 77.35 31.25C72.15 36.75 67.05 46.6 62.05 60.8C57.15 74.9 53.05 94 49.75 118.1C49.05 123.2 48 126.75 46.6 128.75C45.3 130.75 42.7 131.75 38.8 131.75ZM336.013 97.55C337.313 97.55 338.313 98.15 339.013 99.35C339.813 100.55 340.213 102.2 340.213 104.3C340.213 108.2 339.263 111.3 337.363 113.6C332.563 119.4 327.713 123.9 322.813 127.1C317.913 130.2 312.113 131.75 305.413 131.75C298.913 131.75 293.363 130 288.763 126.5C284.263 123 279.963 117 275.863 108.5C272.563 101.7 269.963 96.7 268.063 93.5C266.163 90.2 264.263 87.85 262.363 86.45C260.563 85.05 258.313 84.2 255.613 83.9C255.213 86 254.063 92.6 252.163 103.7C251.363 108.7 250.863 111.75 250.663 112.85C249.663 118.95 247.663 123.65 244.663 126.95C241.663 130.15 237.113 131.75 231.013 131.75C224.313 131.75 218.363 129.8 213.163 125.9C208.063 121.9 204.113 116.4 201.313 109.4C198.513 102.3 197.113 94.25 197.113 85.25C197.113 68.45 200.013 53.95 205.813 41.75C211.713 29.55 219.913 20.25 230.413 13.85C241.013 7.35 253.213 4.1 267.013 4.1C276.613 4.1 284.663 5.55 291.163 8.45C297.663 11.35 302.463 15.35 305.563 20.45C308.763 25.55 310.363 31.3 310.363 37.7C310.363 43.3 309.013 48.8 306.313 54.2C303.713 59.5 299.763 64.2 294.463 68.3C289.163 72.4 282.713 75.45 275.113 77.45C279.913 78.75 283.613 80.85 286.213 83.75C288.813 86.65 291.413 90.9 294.013 96.5C296.813 102.5 299.563 106.9 302.263 109.7C305.063 112.5 308.263 113.9 311.863 113.9C315.063 113.9 318.113 112.85 321.013 110.75C323.913 108.55 327.563 104.85 331.963 99.65C333.163 98.25 334.513 97.55 336.013 97.55ZM234.913 83.75C231.513 83.75 229.163 82.95 227.863 81.35C226.663 79.75 226.063 77.95 226.063 75.95C226.063 73.55 226.813 71.65 228.313 70.25C229.913 68.85 231.713 68.15 233.713 68.15H237.463C239.063 58.35 240.563 49.9 241.963 42.8C243.263 36.3 247.463 33.05 254.563 33.05C260.263 33.05 263.113 35.6 263.113 40.7C263.113 41.8 263.063 42.65 262.963 43.25L258.463 68.15C263.863 67.85 268.763 66.55 273.163 64.25C277.663 61.95 281.213 58.75 283.813 54.65C286.513 50.55 287.863 45.9 287.863 40.7C287.863 34.4 285.713 29.45 281.413 25.85C277.113 22.25 270.813 20.45 262.513 20.45C252.713 20.45 244.113 22.9 236.713 27.8C229.413 32.6 223.713 39.8 219.613 49.4C215.513 58.9 213.463 70.5 213.463 84.2C213.463 90.6 214.113 96.1 215.413 100.7C216.713 105.3 218.313 108.75 220.213 111.05C222.113 113.35 223.913 114.5 225.613 114.5C226.913 114.5 227.963 113.85 228.763 112.55C229.663 111.25 230.363 109.15 230.863 106.25L234.913 83.75Z" fill="#DA291C"/>
<path d="M30.85 129.35L28.6654 131.406L28.6965 131.439L28.7287 131.471L30.85 129.35ZM29.35 108.05L26.3802 107.626L26.3764 107.652L26.3732 107.678L29.35 108.05ZM32.65 87.95L35.6044 88.4714L35.6071 88.4558L35.6097 88.4401L32.65 87.95ZM38.8 47.15L41.7748 47.538L41.7758 47.5301L41.7768 47.5221L38.8 47.15ZM25.75 26.45L27.5065 28.882L27.5125 28.8777L27.5184 28.8734L25.75 26.45ZM13.75 39.05L11.3599 37.2368L11.3473 37.2535L11.3348 37.2704L13.75 39.05ZM5.35 39.95L2.9088 41.6937L2.98034 41.7939L3.05984 41.8878L5.35 39.95ZM4.75 30.5L1.97597 29.3577L1.95778 29.4019L1.94101 29.4466L4.75 30.5ZM8.05 24.8L5.61126 23.0528L5.6088 23.0563L8.05 24.8ZM24.1 9.34999L25.6626 11.9109L25.6783 11.9013L25.6939 11.8916L24.1 9.34999ZM54.4 9.05L52.0899 10.964L52.1059 10.9833L52.1222 11.0024L54.4 9.05ZM58.15 33.95L61.1215 34.3627L61.123 34.3518L58.15 33.95ZM56.8 42.8L59.7556 43.314L59.7556 43.314L56.8 42.8ZM55.9 47.6L52.9714 46.9492L58.7318 48.5903L55.9 47.6ZM75.1 13.55L77.1086 15.7783L77.1172 15.7706L77.1258 15.7627L75.1 13.55ZM113.8 10.7L111.462 12.5803L111.475 12.5955L111.487 12.6106L113.8 10.7ZM118.15 42.5L115.199 41.958L120.971 43.5219L118.15 42.5ZM135.7 12.8L133.699 10.5651L133.699 10.5651L135.7 12.8ZM174.85 10.55L172.533 12.4553L172.545 12.4705L172.558 12.4855L174.85 10.55ZM178.6 45.5L181.534 46.1258L181.536 46.116L181.538 46.1063L178.6 45.5ZM169.45 88.4L166.516 87.7742L166.512 87.7929L166.508 87.8117L169.45 88.4ZM170.8 110.75L168.575 112.763L168.601 112.791L168.628 112.819L170.8 110.75ZM188.65 110.6L186.95 108.128L186.932 108.141L186.914 108.153L188.65 110.6ZM199.9 99.65L197.622 97.6976L197.614 97.7069L197.606 97.7162L199.9 99.65ZM206.95 99.35L204.359 100.862L204.404 100.939L204.454 101.014L206.95 99.35ZM205.3 113.6L202.987 111.689L202.986 111.69L205.3 113.6ZM189.85 127.4L191.333 130.008L191.333 130.008L189.85 127.4ZM153.85 124.25L151.665 126.306L151.676 126.317L151.686 126.328L153.85 124.25ZM150.25 78.2L147.319 77.5594L147.317 77.5714L150.25 78.2ZM156.25 50.75L153.321 50.0992L153.319 50.1094L156.25 50.75ZM158.5 39.5L161.467 39.945L161.468 39.9346L161.47 39.9242L158.5 39.5ZM156.85 25.55L154.418 27.3065L154.474 27.3836L154.534 27.4571L156.85 25.55ZM136.3 32L134.017 30.0538L134.014 30.0571L136.3 32ZM121.6 62L118.756 61.0452L118.753 61.0544L118.75 61.0635L121.6 62ZM110.35 116.6L107.375 116.215L107.372 116.234L107.37 116.252L110.35 116.6ZM106.6 128.75L104.322 126.798L104.314 126.807L106.6 128.75ZM90.7 129.35L88.5114 131.402L88.5445 131.437L88.5787 131.471L90.7 129.35ZM90.1 104.3L93.0592 104.793L93.0604 104.786L90.1 104.3ZM94.3 80.75L91.3528 80.1898L91.3521 80.1932L94.3 80.75ZM98.95 25.55L96.5819 27.3918L96.613 27.4317L96.6453 27.4706L98.95 25.55ZM77.35 31.25L79.5299 33.311L79.5392 33.3012L79.5484 33.2913L77.35 31.25ZM62.05 60.8L59.2203 59.8036L59.2162 59.8152L62.05 60.8ZM49.75 118.1L52.7221 118.508L52.7223 118.507L49.75 118.1ZM46.6 128.75L44.1423 127.03L44.1128 127.072L44.0847 127.115L46.6 128.75ZM38.8 131.75V128.75C35.4138 128.75 33.7411 127.998 32.9713 127.229L30.85 129.35L28.7287 131.471C31.1589 133.902 34.7862 134.75 38.8 134.75V131.75ZM30.85 129.35L33.0346 127.294C32.2756 126.488 31.45 124.379 31.45 119.9H28.45H25.45C25.45 124.621 26.2244 128.812 28.6654 131.406L30.85 129.35ZM28.45 119.9H31.45C31.45 116.973 31.7347 113.159 32.3268 108.422L29.35 108.05L26.3732 107.678C25.7653 112.541 25.45 116.627 25.45 119.9H28.45ZM29.35 108.05L32.3199 108.474C33.013 103.622 34.1065 96.959 35.6044 88.4714L32.65 87.95L29.6957 87.4286C28.1935 95.941 27.087 102.678 26.3802 107.626L29.35 108.05ZM32.65 87.95L35.6097 88.4401C38.2134 72.7177 40.2691 59.082 41.7748 47.538L38.8 47.15L35.8252 46.762C34.3309 58.218 32.2866 71.7823 29.6903 87.4599L32.65 87.95ZM38.8 47.15L41.7768 47.5221C42.6853 40.2542 43.15 34.12 43.15 29.15H40.15H37.15C37.15 33.78 36.7147 39.6458 35.8232 46.7779L38.8 47.15ZM40.15 29.15H43.15C43.15 26.6219 42.7023 24.1824 41.3317 22.3134C39.8339 20.2709 37.6076 19.4 35.2 19.4V22.4V25.4C36.0924 25.4 36.3411 25.6541 36.4933 25.8616C36.7727 26.2426 37.15 27.1781 37.15 29.15H40.15ZM35.2 22.4V19.4C31.6393 19.4 27.8488 21.2046 23.9816 24.0266L25.75 26.45L27.5184 28.8734C31.0512 26.2954 33.5607 25.4 35.2 25.4V22.4ZM25.75 26.45L23.9935 24.018C20.0488 26.867 15.8403 31.3309 11.3599 37.2368L13.75 39.05L16.1401 40.8632C20.4597 35.1691 24.2513 31.233 27.5065 28.882L25.75 26.45ZM13.75 39.05L11.3348 37.2704C10.2649 38.7224 9.50961 38.9 9.1 38.9V41.9V44.9C12.0904 44.9 14.4351 43.1776 16.1652 40.8296L13.75 39.05ZM9.1 41.9V38.9C8.77217 38.9 8.30527 38.7982 7.64016 38.0122L5.35 39.95L3.05984 41.8878C4.59473 43.7018 6.62783 44.9 9.1 44.9V41.9ZM5.35 39.95L7.7912 38.2063C7.14993 37.3085 6.85 36.3667 6.85 35.3H3.85H0.85C0.85 37.6333 1.55007 39.7915 2.9088 41.6937L5.35 39.95ZM3.85 35.3H6.85C6.85 34.0836 7.07665 32.8396 7.55899 31.5534L4.75 30.5L1.94101 29.4466C1.22335 31.3604 0.85 33.3164 0.85 35.3H3.85ZM4.75 30.5L7.52403 31.6422C8.1093 30.2209 9.07569 28.5254 10.4912 26.5437L8.05 24.8L5.6088 23.0563C4.02431 25.2746 2.7907 27.3791 1.97597 29.3577L4.75 30.5ZM8.05 24.8L10.4887 26.5472C15.0986 20.1126 20.1658 15.2649 25.6626 11.9109L24.1 9.34999L22.5374 6.78908C16.2342 10.6351 10.6014 16.0874 5.61126 23.0528L8.05 24.8ZM24.1 9.34999L25.6939 11.8916C31.2036 8.43634 36.5587 6.79999 41.8 6.79999V3.79999V0.799993C35.2413 0.799993 28.7964 2.86365 22.5061 6.80842L24.1 9.34999ZM41.8 3.79999V6.79999C46.6133 6.79999 49.8798 8.29659 52.0899 10.964L54.4 9.05L56.7101 7.13594C53.1202 2.8034 47.9867 0.799993 41.8 0.799993V3.79999ZM54.4 9.05L52.1222 11.0024C54.4843 13.7582 55.9 18.0484 55.9 24.35H58.9H61.9C61.9 17.2516 60.3157 11.3418 56.6778 7.09762L54.4 9.05ZM58.9 24.35H55.9C55.9 26.8758 55.6653 29.935 55.177 33.5482L58.15 33.95L61.123 34.3518C61.6347 30.565 61.9 27.2242 61.9 24.35H58.9ZM58.15 33.95L55.1785 33.5373C54.681 37.1198 54.2362 40.0327 53.8444 42.286L56.8 42.8L59.7556 43.314C60.1638 40.9673 60.619 37.9802 61.1215 34.3627L58.15 33.95ZM56.8 42.8L53.8444 42.286C53.4439 44.5885 53.1545 46.1254 52.9714 46.9492L55.9 47.6L58.8286 48.2508C59.0455 47.2746 59.3561 45.6115 59.7556 43.314L56.8 42.8ZM55.9 47.6L58.7318 48.5903C64.3799 32.4388 70.5751 21.6677 77.1086 15.7783L75.1 13.55L73.0914 11.3217C65.4249 18.2323 58.8201 30.1612 53.0682 46.6097L55.9 47.6ZM75.1 13.55L77.1258 15.7627C83.7514 9.69702 90.8503 6.79999 98.5 6.79999V3.79999V0.799993C89.1497 0.799993 80.6486 4.40296 73.0742 11.3372L75.1 13.55ZM98.5 3.79999V6.79999C104.196 6.79999 108.394 8.76593 111.462 12.5803L113.8 10.7L116.138 8.81972C111.806 3.43406 105.804 0.799993 98.5 0.799993V3.79999ZM113.8 10.7L111.487 12.6106C114.692 16.4906 116.5 22.2171 116.5 30.2H119.5H122.5C122.5 21.3829 120.508 14.1094 116.113 8.78935L113.8 10.7ZM119.5 30.2H116.5C116.5 33.2515 116.081 37.1563 115.199 41.958L118.15 42.5L121.101 43.0419C122.019 38.0436 122.5 33.7485 122.5 30.2H119.5ZM118.15 42.5L120.971 43.5219C125.897 29.9258 131.533 20.5584 137.701 15.0348L135.7 12.8L133.699 10.5651C126.467 17.0416 120.403 27.4742 115.329 41.478L118.15 42.5ZM135.7 12.8L137.701 15.0348C143.872 9.50926 150.866 6.79999 158.8 6.79999V3.79999V0.799993C149.334 0.799993 140.928 4.09072 133.699 10.5651L135.7 12.8ZM158.8 3.79999V6.79999C165.103 6.79999 169.518 8.78927 172.533 12.4553L174.85 10.55L177.167 8.64468C172.782 3.31072 166.497 0.799993 158.8 0.799993V3.79999ZM174.85 10.55L172.558 12.4855C175.755 16.2713 177.55 21.7934 177.55 29.45H180.55H183.55C183.55 20.9065 181.545 13.8287 177.142 8.61445L174.85 10.55ZM180.55 29.45H177.55C177.55 33.5765 176.938 38.7107 175.662 44.8937L178.6 45.5L181.538 46.1063C182.862 39.6893 183.55 34.1235 183.55 29.45H180.55ZM178.6 45.5L175.666 44.8742L166.516 87.7742L169.45 88.4L172.384 89.0258L181.534 46.1258L178.6 45.5ZM169.45 88.4L166.508 87.8117C165.484 92.9323 164.95 97.4398 164.95 101.3H167.95H170.95C170.95 97.9602 171.416 93.8677 172.392 88.9883L169.45 88.4ZM167.95 101.3H164.95C164.95 105.892 165.982 109.897 168.575 112.763L170.8 110.75L173.025 108.737C171.818 107.403 170.95 105.108 170.95 101.3H167.95ZM170.8 110.75L168.628 112.819C171.309 115.634 174.912 116.9 179.05 116.9V113.9V110.9C176.188 110.9 174.291 110.066 172.972 108.681L170.8 110.75ZM179.05 113.9V116.9C183.063 116.9 186.859 115.55 190.386 113.047L188.65 110.6L186.914 108.153C184.241 110.05 181.637 110.9 179.05 110.9V113.9ZM188.65 110.6L190.35 113.072C193.874 110.649 197.825 106.765 202.194 101.584L199.9 99.65L197.606 97.7162C193.375 102.735 189.827 106.151 186.95 108.128L188.65 110.6ZM199.9 99.65L202.178 101.602C202.95 100.701 203.523 100.55 203.95 100.55V97.55V94.55C201.377 94.55 199.25 95.7988 197.622 97.6976L199.9 99.65ZM203.95 97.55V100.55C204.043 100.55 204.093 100.561 204.111 100.565C204.128 100.57 204.131 100.572 204.132 100.572C204.133 100.573 204.152 100.584 204.188 100.622C204.225 100.662 204.285 100.736 204.359 100.862L206.95 99.35L209.541 97.8384C208.349 95.7939 206.403 94.55 203.95 94.55V97.55ZM206.95 99.35L204.454 101.014C204.807 101.544 205.15 102.536 205.15 104.3H208.15H211.15C211.15 101.864 210.693 99.5558 209.446 97.6859L206.95 99.35ZM208.15 104.3H205.15C205.15 107.72 204.322 110.073 202.987 111.689L205.3 113.6L207.613 115.511C210.078 112.527 211.15 108.68 211.15 104.3H208.15ZM205.3 113.6L202.986 111.69C197.934 117.811 193.052 122.128 188.367 124.792L189.85 127.4L191.333 130.008C196.848 126.872 202.266 121.989 207.614 115.51L205.3 113.6ZM189.85 127.4L188.367 124.792C183.697 127.448 178.855 128.75 173.8 128.75V131.75V134.75C179.945 134.75 185.803 133.152 191.333 130.008L189.85 127.4ZM173.8 131.75V128.75C165.919 128.75 160.125 126.454 156.014 122.172L153.85 124.25L151.686 126.328C157.175 132.046 164.681 134.75 173.8 134.75V131.75ZM153.85 124.25L156.035 122.194C151.866 117.764 149.65 111.758 149.65 103.85H146.65H143.65C143.65 112.942 146.234 120.536 151.665 126.306L153.85 124.25ZM146.65 103.85H149.65C149.65 98.2758 150.795 89.9766 153.183 78.8286L150.25 78.2L147.317 77.5714C144.905 88.8234 143.65 97.6242 143.65 103.85H146.65ZM150.25 78.2L153.181 78.8406L159.181 51.3906L156.25 50.75L153.319 50.1094L147.319 77.5594L150.25 78.2ZM156.25 50.75L159.179 51.4008C159.38 50.4932 159.732 48.887 160.232 46.5873L157.3 45.95L154.368 45.3127C153.868 47.613 153.52 49.2068 153.321 50.0992L156.25 50.75ZM157.3 45.95L160.232 46.5873C160.743 44.2336 161.156 42.0189 161.467 39.945L158.5 39.5L155.533 39.055C155.244 40.9811 154.857 43.0664 154.368 45.3127L157.3 45.95ZM158.5 39.5L161.47 39.9242C161.789 37.6921 161.95 35.5002 161.95 33.35H158.95H155.95C155.95 35.1998 155.811 37.1078 155.53 39.0757L158.5 39.5ZM158.95 33.35H161.95C161.95 29.5393 161.203 26.1166 159.166 23.6429L156.85 25.55L154.534 27.4571C155.297 28.3834 155.95 30.1607 155.95 33.35H158.95ZM156.85 25.55L159.282 23.7935C157.341 21.1056 154.473 19.85 151.15 19.85V22.85V25.85C152.827 25.85 153.759 26.3944 154.418 27.3065L156.85 25.55ZM151.15 22.85V19.85C145.113 19.85 139.401 23.7378 134.017 30.0538L136.3 32L138.583 33.9462C143.599 28.0622 147.787 25.85 151.15 25.85V22.85ZM136.3 32L134.014 30.0571C128.536 36.502 123.49 46.9438 118.756 61.0452L121.6 62L124.444 62.9548C129.11 49.0562 133.864 39.498 138.586 33.9429L136.3 32ZM121.6 62L118.75 61.0635C114.069 75.3109 110.288 93.7152 107.375 116.215L110.35 116.6L113.325 116.985C116.212 94.6848 119.931 76.6891 124.45 62.9365L121.6 62ZM110.35 116.6L107.37 116.252C106.675 122.215 105.484 125.443 104.322 126.798L106.6 128.75L108.878 130.702C111.316 127.857 112.625 122.985 113.33 116.948L110.35 116.6ZM106.6 128.75L104.314 126.807C103.416 127.864 101.655 128.75 98.2 128.75V131.75V134.75C102.545 134.75 106.384 133.636 108.886 130.693L106.6 128.75ZM98.2 131.75V128.75C95.2008 128.75 93.6304 128.038 92.8213 127.229L90.7 129.35L88.5787 131.471C90.9697 133.862 94.3993 134.75 98.2 134.75V131.75ZM90.7 129.35L92.8886 127.298C92.2316 126.597 91.45 124.646 91.45 120.35H88.45H85.45C85.45 124.854 86.1684 128.903 88.5114 131.402L90.7 129.35ZM88.45 120.35H91.45C91.45 116.485 91.9717 111.318 93.0592 104.793L90.1 104.3L87.1408 103.807C86.0283 110.482 85.45 116.015 85.45 120.35H88.45ZM90.1 104.3L93.0604 104.786C94.1554 98.1162 95.5509 90.2908 97.2479 81.3068L94.3 80.75L91.3521 80.1932C89.6491 89.2092 88.2446 97.0838 87.1396 103.814L90.1 104.3ZM94.3 80.75L97.2472 81.3102C101.832 57.1902 104.2 41.29 104.2 33.95H101.2H98.2C98.2 40.61 95.968 55.9098 91.3528 80.1898L94.3 80.75ZM101.2 33.95H104.2C104.2 29.8552 103.409 26.2151 101.255 23.6294L98.95 25.55L96.6453 27.4706C97.4906 28.4849 98.2 30.4448 98.2 33.95H101.2ZM98.95 25.55L101.318 23.7082C99.1996 20.9844 96.0502 19.85 92.5 19.85V22.85V25.85C94.7498 25.85 95.9004 26.5156 96.5819 27.3918L98.95 25.55ZM92.5 22.85V19.85C86.3968 19.85 80.6067 23.3339 75.1516 29.2086L77.35 31.25L79.5484 33.2913C84.4933 27.9661 88.8032 25.85 92.5 25.85V22.85ZM77.35 31.25L75.1701 29.189C69.5168 35.1684 64.2489 45.5224 59.2203 59.8036L62.05 60.8L64.8797 61.7964C69.8511 47.6776 74.7832 38.3316 79.5299 33.311L77.35 31.25ZM62.05 60.8L59.2162 59.8152C54.2234 74.1824 50.0901 93.5025 46.7777 117.693L49.75 118.1L52.7223 118.507C56.0099 94.4975 60.0766 75.6176 64.8838 61.7848L62.05 60.8ZM49.75 118.1L46.7779 117.692C46.0861 122.732 45.1024 125.658 44.1423 127.03L46.6 128.75L49.0577 130.47C50.8976 127.842 52.0139 123.668 52.7221 118.508L49.75 118.1ZM46.6 128.75L44.0847 127.115C43.6211 127.828 42.3455 128.75 38.8 128.75V131.75V134.75C43.0545 134.75 46.9789 133.672 49.1153 130.385L46.6 128.75ZM339.013 99.35L336.422 100.862L336.467 100.939L336.517 101.014L339.013 99.35ZM337.363 113.6L339.674 115.513L339.676 115.511L337.363 113.6ZM322.813 127.1L324.417 129.635L324.436 129.624L324.454 129.612L322.813 127.1ZM288.763 126.5L286.921 128.868L286.934 128.878L286.947 128.887L288.763 126.5ZM275.863 108.5L278.565 107.197L278.562 107.19L275.863 108.5ZM268.063 93.5L265.463 94.9969L265.473 95.0143L265.484 95.0316L268.063 93.5ZM262.363 86.45L260.521 88.8181L260.552 88.842L260.584 88.8652L262.363 86.45ZM255.613 83.9L255.945 80.9183L253.186 80.6118L252.666 83.3387L255.613 83.9ZM252.163 103.7L249.206 103.194L249.204 103.21L249.201 103.226L252.163 103.7ZM250.663 112.85L247.712 112.313L247.707 112.339L247.703 112.365L250.663 112.85ZM244.663 126.95L246.852 129.002L246.868 128.985L246.883 128.968L244.663 126.95ZM213.163 125.9L211.312 128.261L211.337 128.281L211.363 128.3L213.163 125.9ZM201.313 109.4L198.522 110.501L198.525 110.507L198.528 110.514L201.313 109.4ZM205.813 41.75L203.113 40.4439L203.108 40.4529L203.104 40.4619L205.813 41.75ZM230.413 13.85L231.975 16.4117L231.982 16.4075L230.413 13.85ZM305.563 20.45L303 22.0082L303.011 22.0264L303.022 22.0445L305.563 20.45ZM306.313 54.2L303.63 52.8584L303.625 52.8685L303.62 52.8787L306.313 54.2ZM294.463 68.3L296.299 70.6729L296.299 70.6729L294.463 68.3ZM275.113 77.45L274.35 74.5488L263.483 77.4083L274.329 80.3457L275.113 77.45ZM286.213 83.75L288.447 81.7474L288.447 81.7474L286.213 83.75ZM294.013 96.5L291.292 97.7633L291.295 97.7687L294.013 96.5ZM302.263 109.7L300.104 111.782L300.123 111.802L300.142 111.821L302.263 109.7ZM321.013 110.75L322.773 113.18L322.8 113.16L322.826 113.14L321.013 110.75ZM331.963 99.65L329.686 97.6976L329.679 97.7049L329.673 97.7122L331.963 99.65ZM234.913 83.75L237.866 84.2815L238.501 80.75H234.913V83.75ZM227.863 81.35L225.463 83.15L225.498 83.1966L225.535 83.2418L227.863 81.35ZM228.313 70.25L226.338 67.9923L226.302 68.024L226.266 68.0568L228.313 70.25ZM237.463 68.15V71.15H240.013L240.424 68.6334L237.463 68.15ZM241.963 42.8L239.022 42.2116L239.02 42.2196L241.963 42.8ZM262.963 43.25L265.915 43.7835L265.919 43.7634L265.922 43.7432L262.963 43.25ZM258.463 68.15L255.511 67.6165L254.835 71.3562L258.63 71.1454L258.463 68.15ZM273.163 64.25L271.798 61.5787L271.786 61.585L271.774 61.5913L273.163 64.25ZM283.813 54.65L281.308 53L281.294 53.0216L281.28 53.0434L283.813 54.65ZM281.413 25.85L283.339 23.5497L283.339 23.5497L281.413 25.85ZM236.713 27.8L238.362 30.3067L238.37 30.3013L236.713 27.8ZM219.613 49.4L222.368 50.5888L222.372 50.5783L219.613 49.4ZM215.413 100.7L212.526 101.516L212.526 101.516L215.413 100.7ZM220.213 111.05L217.9 112.961L217.9 112.961L220.213 111.05ZM228.763 112.55L226.297 110.842L226.251 110.909L226.208 110.978L228.763 112.55ZM230.863 106.25L227.911 105.719L227.909 105.729L227.907 105.74L230.863 106.25ZM336.013 97.55V100.55C336.106 100.55 336.156 100.561 336.175 100.565C336.191 100.57 336.194 100.572 336.195 100.572C336.196 100.573 336.215 100.584 336.251 100.622C336.288 100.662 336.349 100.736 336.422 100.862L339.013 99.35L341.605 97.8384C340.412 95.7939 338.467 94.55 336.013 94.55V97.55ZM339.013 99.35L336.517 101.014C336.871 101.544 337.213 102.536 337.213 104.3H340.213H343.213C343.213 101.864 342.756 99.5558 341.509 97.6859L339.013 99.35ZM340.213 104.3H337.213C337.213 107.72 336.385 110.073 335.05 111.689L337.363 113.6L339.676 115.511C342.141 112.527 343.213 108.68 343.213 104.3H340.213ZM337.363 113.6L335.052 111.687C330.392 117.318 325.76 121.592 321.173 124.588L322.813 127.1L324.454 129.612C329.666 126.208 334.734 121.482 339.674 115.513L337.363 113.6ZM322.813 127.1L321.209 124.565C316.86 127.316 311.636 128.75 305.413 128.75V131.75V134.75C312.591 134.75 318.966 133.084 324.417 129.635L322.813 127.1ZM305.413 131.75V128.75C299.484 128.75 294.593 127.166 290.58 124.113L288.763 126.5L286.947 128.887C292.133 132.834 298.343 134.75 305.413 134.75V131.75ZM288.763 126.5L290.605 124.132C286.634 121.043 282.58 115.52 278.565 107.197L275.863 108.5L273.161 109.803C277.346 118.48 281.892 124.957 286.921 128.868L288.763 126.5ZM275.863 108.5L278.562 107.19C275.255 100.375 272.61 95.2815 270.643 91.9684L268.063 93.5L265.484 95.0316C267.317 98.1185 269.872 103.025 273.164 109.81L275.863 108.5ZM268.063 93.5L270.663 92.0031C268.668 88.5381 266.52 85.7861 264.143 84.0348L262.363 86.45L260.584 88.8652C262.007 89.9139 263.658 91.8619 265.463 94.9969L268.063 93.5ZM262.363 86.45L264.205 84.0819C261.891 82.2817 259.089 81.2677 255.945 80.9183L255.613 83.9L255.282 86.8816C257.538 87.1323 259.236 87.8182 260.521 88.8181L262.363 86.45ZM255.613 83.9L252.666 83.3387C252.26 85.4735 251.104 92.1091 249.206 103.194L252.163 103.7L255.12 104.206C257.023 93.0909 258.167 86.5265 258.56 84.4613L255.613 83.9ZM252.163 103.7L249.201 103.226C248.399 108.24 247.905 111.252 247.712 112.313L250.663 112.85L253.615 113.387C253.822 112.248 254.328 109.16 255.126 104.174L252.163 103.7ZM250.663 112.85L247.703 112.365C246.762 118.106 244.93 122.196 242.443 124.932L244.663 126.95L246.883 128.968C250.396 125.104 252.565 119.794 253.624 113.335L250.663 112.85ZM244.663 126.95L242.475 124.898C240.235 127.287 236.617 128.75 231.013 128.75V131.75V134.75C237.61 134.75 243.091 133.013 246.852 129.002L244.663 126.95ZM231.013 131.75V128.75C224.941 128.75 219.627 126.998 214.963 123.5L213.163 125.9L211.363 128.3C217.099 132.602 223.686 134.75 231.013 134.75V131.75ZM213.163 125.9L215.015 123.539C210.394 119.915 206.735 114.876 204.099 108.286L201.313 109.4L198.528 110.514C201.492 117.924 205.733 123.885 211.312 128.261L213.163 125.9ZM201.313 109.4L204.104 108.299C201.465 101.607 200.113 93.9395 200.113 85.25H197.113H194.113C194.113 94.5605 195.562 102.993 198.522 110.501L201.313 109.4ZM197.113 85.25H200.113C200.113 68.7897 202.955 54.7498 208.523 43.0381L205.813 41.75L203.104 40.4619C197.072 53.1502 194.113 68.1103 194.113 85.25H197.113ZM205.813 41.75L208.514 43.0561C214.189 31.3205 222.017 22.4811 231.975 16.4117L230.413 13.85L228.852 11.2883C217.81 18.0189 209.237 27.7795 203.113 40.4439L205.813 41.75ZM230.413 13.85L231.982 16.4075C242.059 10.2279 253.704 7.1 267.013 7.1V4.1V1.1C252.722 1.1 239.968 4.47208 228.845 11.2925L230.413 13.85ZM267.013 4.1V7.1C276.331 7.1 283.935 8.51006 289.941 11.1897L291.163 8.45L292.386 5.7103C285.392 2.58993 276.896 1.1 267.013 1.1V4.1ZM291.163 8.45L289.941 11.1897C295.994 13.8901 300.273 17.523 303 22.0082L305.563 20.45L308.127 18.8917C304.653 13.177 299.333 8.80986 292.386 5.7103L291.163 8.45ZM305.563 20.45L303.022 22.0445C305.903 26.6362 307.363 31.8269 307.363 37.7H310.363H313.363C313.363 30.7731 311.623 24.4638 308.104 18.8555L305.563 20.45ZM310.363 37.7H307.363C307.363 42.7985 306.138 47.8417 303.63 52.8584L306.313 54.2L308.997 55.5416C311.888 49.7583 313.363 43.8015 313.363 37.7H310.363ZM306.313 54.2L303.62 52.8787C301.247 57.7148 297.614 62.0695 292.628 65.9271L294.463 68.3L296.299 70.6729C301.912 66.3305 306.179 61.2852 309.007 55.5213L306.313 54.2ZM294.463 68.3L292.628 65.9271C287.696 69.7421 281.627 72.6337 274.35 74.5488L275.113 77.45L275.877 80.3512C283.8 78.2663 290.63 75.0579 296.299 70.6729L294.463 68.3ZM275.113 77.45L274.329 80.3457C278.723 81.5358 281.86 83.3889 283.98 85.7526L286.213 83.75L288.447 81.7474C285.366 78.3111 281.103 75.9642 275.898 74.5543L275.113 77.45ZM286.213 83.75L283.98 85.7526C286.301 88.3415 288.753 92.2947 291.292 97.7633L294.013 96.5L296.734 95.2367C294.073 89.5053 291.326 84.9585 288.447 81.7474L286.213 83.75ZM294.013 96.5L291.295 97.7687C294.151 103.889 297.068 108.634 300.104 111.782L302.263 109.7L304.423 107.618C302.059 105.166 299.476 101.111 296.732 95.2313L294.013 96.5ZM302.263 109.7L300.142 111.821C303.443 115.122 307.384 116.9 311.863 116.9V113.9V110.9C309.142 110.9 306.684 109.878 304.385 107.579L302.263 109.7ZM311.863 113.9V116.9C315.77 116.9 319.425 115.604 322.773 113.18L321.013 110.75L319.254 108.32C316.802 110.096 314.357 110.9 311.863 110.9V113.9ZM321.013 110.75L322.826 113.14C325.992 110.738 329.812 106.837 334.253 101.588L331.963 99.65L329.673 97.7122C325.315 102.863 321.834 106.362 319.2 108.36L321.013 110.75ZM331.963 99.65L334.241 101.602C335.013 100.701 335.586 100.55 336.013 100.55V97.55V94.55C333.44 94.55 331.313 95.7988 329.686 97.6976L331.963 99.65ZM234.913 83.75V80.75C231.841 80.75 230.638 80.0074 230.192 79.4582L227.863 81.35L225.535 83.2418C227.689 85.8926 231.186 86.75 234.913 86.75V83.75ZM227.863 81.35L230.263 79.55C229.453 78.4693 229.063 77.3009 229.063 75.95H226.063H223.063C223.063 78.5991 223.874 81.0307 225.463 83.15L227.863 81.35ZM226.063 75.95H229.063C229.063 74.2276 229.572 73.1787 230.36 72.4432L228.313 70.25L226.266 68.0568C224.054 70.1213 223.063 72.8724 223.063 75.95H226.063ZM228.313 70.25L230.289 72.5077C231.379 71.5535 232.488 71.15 233.713 71.15V68.15V65.15C230.938 65.15 228.447 66.1465 226.338 67.9923L228.313 70.25ZM233.713 68.15V71.15H237.463V68.15V65.15H233.713V68.15ZM237.463 68.15L240.424 68.6334C242.021 58.8548 243.515 50.4388 244.907 43.3804L241.963 42.8L239.02 42.2196C237.612 49.3612 236.106 57.8452 234.502 67.6666L237.463 68.15ZM241.963 42.8L244.905 43.3883C245.45 40.6649 246.527 38.9412 247.924 37.8601C249.346 36.7599 251.455 36.05 254.563 36.05V33.05V30.05C250.572 30.05 247.031 30.965 244.252 33.1149C241.449 35.2838 239.777 38.4351 239.022 42.2117L241.963 42.8ZM254.563 33.05V36.05C257.028 36.05 258.316 36.6086 258.975 37.1982C259.571 37.7311 260.113 38.7041 260.113 40.7H263.113H266.113C266.113 37.5959 265.231 34.7439 262.976 32.7268C260.785 30.7664 257.799 30.05 254.563 30.05V33.05ZM263.113 40.7H260.113C260.113 41.7441 260.063 42.4005 260.004 42.7568L262.963 43.25L265.922 43.7432C266.063 42.8995 266.113 41.8559 266.113 40.7H263.113ZM262.963 43.25L260.011 42.7165L255.511 67.6165L258.463 68.15L261.415 68.6835L265.915 43.7835L262.963 43.25ZM258.463 68.15L258.63 71.1454C264.418 70.8238 269.741 69.424 274.553 66.9087L273.163 64.25L271.774 61.5913C267.785 63.676 263.308 64.8762 258.297 65.1546L258.463 68.15ZM273.163 64.25L274.529 66.9213C279.486 64.3877 283.448 60.8286 286.347 56.2566L283.813 54.65L281.28 53.0434C278.979 56.6714 275.841 59.5123 271.798 61.5787L273.163 64.25ZM283.813 54.65L286.319 56.3C289.361 51.6805 290.863 46.45 290.863 40.7H287.863H284.863C284.863 45.35 283.666 49.4195 281.308 53L283.813 54.65ZM287.863 40.7H290.863C290.863 33.6353 288.409 27.7944 283.339 23.5497L281.413 25.85L279.487 28.1503C283.017 31.1056 284.863 35.1647 284.863 40.7H287.863ZM281.413 25.85L283.339 23.5497C278.292 19.3246 271.19 17.45 262.513 17.45V20.45V23.45C270.437 23.45 275.934 25.1754 279.487 28.1503L281.413 25.85ZM262.513 20.45V17.45C252.188 17.45 242.999 20.0399 235.057 25.2987L236.713 27.8L238.37 30.3013C245.228 25.7601 253.239 23.45 262.513 23.45V20.45ZM236.713 27.8L235.065 25.2933C227.183 30.476 221.14 38.1867 216.854 48.2217L219.613 49.4L222.372 50.5783C226.286 41.4133 231.643 34.724 238.362 30.3067L236.713 27.8ZM219.613 49.4L216.859 48.2112C212.553 58.1871 210.463 70.217 210.463 84.2H213.463H216.463C216.463 70.783 218.473 59.6129 222.368 50.5887L219.613 49.4ZM213.463 84.2H210.463C210.463 90.7889 211.131 96.578 212.526 101.516L215.413 100.7L218.3 99.8841C217.096 95.622 216.463 90.4111 216.463 84.2H213.463ZM215.413 100.7L212.526 101.516C213.879 106.303 215.623 110.204 217.9 112.961L220.213 111.05L222.526 109.139C221.003 107.296 219.547 104.297 218.3 99.8841L215.413 100.7ZM220.213 111.05L217.9 112.961C219.961 115.455 222.53 117.5 225.613 117.5V114.5V111.5C225.297 111.5 224.266 111.245 222.526 109.139L220.213 111.05ZM225.613 114.5V117.5C228.152 117.5 230.084 116.128 231.318 114.122L228.763 112.55L226.208 110.978C225.996 111.322 225.842 111.434 225.797 111.462C225.773 111.476 225.757 111.482 225.742 111.487C225.725 111.491 225.686 111.5 225.613 111.5V114.5ZM228.763 112.55L231.23 114.258C232.51 112.409 233.299 109.782 233.82 106.76L230.863 106.25L227.907 105.74C227.428 108.518 226.817 110.091 226.297 110.842L228.763 112.55ZM230.863 106.25L233.816 106.781L237.866 84.2815L234.913 83.75L231.961 83.2185L227.911 105.719L230.863 106.25Z" fill="black" mask="url(#path-9-outside-1_56_21)"/>
<defs>
<filter id="filter0_d_56_21" x="61.6284" y="133.125" width="224.728" height="74.7688" filterUnits="userSpaceOnUse" color-interpolation-filters="sRGB">
<feFlood flood-opacity="0" result="BackgroundImageFix"/>
<feColorMatrix in="SourceAlpha" type="matrix" values="0 0 0 0 0 0 0 0 0 0 0 0 0 0 0 0 0 0 127 0" result="hardAlpha"/>
<feOffset dy="4"/>
<feGaussianBlur stdDeviation="2"/>
<feComposite in2="hardAlpha" operator="out"/>
<feColorMatrix type="matrix" values="0 0 0 0 0 0 0 0 0 0 0 0 0 0 0 0 0 0 0.25 0"/>
<feBlend mode="normal" in2="BackgroundImageFix" result="effect1_dropShadow_56_21"/>
<feBlend mode="normal" in="SourceGraphic" in2="effect1_dropShadow_56_21" result="shape"/>
</filter>
</defs>
</svg>
